<svg version="1.1" id="Layer_1" xmlns="http://www.w3.org/2000/svg" xmlns:xlink="http://www.w3.org/1999/xlink" x="0px" y="0px"
	 width="100%" viewBox="0 0 180 180" enable-background="new 0 0 180 180" xml:space="preserve">
<path fill="#FEFEFE" opacity="1.000000" stroke="none" 
	d="
M101.000000,181.000000 
	C67.333336,181.000000 34.166672,181.000000 1.000005,181.000000 
	C1.000003,121.000008 1.000003,61.000011 1.000001,1.000013 
	C60.999989,1.000008 120.999977,1.000008 180.999969,1.000004 
	C180.999985,60.999985 180.999985,120.999969 181.000000,180.999969 
	C154.500000,181.000000 128.000000,181.000000 101.000000,181.000000 
M112.996529,35.377354 
	C112.684608,35.201542 112.372688,35.025730 111.875214,34.192753 
	C110.251152,32.461468 108.627090,30.730185 106.904198,28.303913 
	C104.711891,24.604759 102.994347,20.411636 97.224670,19.829973 
	C96.471199,21.863220 95.717720,23.896465 94.396576,26.281883 
	C89.925598,30.176369 85.454620,34.070854 80.342865,38.002121 
	C75.143875,40.773472 69.944885,43.544819 64.057800,46.542873 
	C56.542385,50.393970 55.454449,58.488621 51.460644,65.505333 
	C50.050270,69.703606 48.091167,73.811455 47.380318,78.125008 
	C46.635311,82.645790 47.088249,87.363976 46.803493,92.758690 
	C46.220840,94.550262 45.638187,96.341835 44.444630,97.887947 
	C39.933891,94.611092 40.219051,98.124886 39.876339,101.644897 
	C39.902660,102.092293 39.928982,102.539688 39.503395,103.549561 
	C40.174652,108.391251 40.694653,113.260971 41.584297,118.062195 
	C41.996929,120.289070 42.831501,122.760445 46.858921,122.015572 
	C48.232349,125.680595 49.605778,129.345612 50.980602,133.659698 
	C51.233963,133.994812 51.487328,134.329926 51.752869,135.288239 
	C52.426456,136.551453 53.100044,137.814682 53.866241,139.673141 
	C54.238239,140.126724 54.610241,140.580322 55.068974,141.495560 
	C55.195454,141.811325 55.423309,142.011978 55.949059,142.658127 
	C56.254601,142.898499 56.560143,143.138855 57.148975,143.954712 
	C59.611858,146.370041 62.074745,148.785370 64.881416,151.733429 
	C65.854462,152.512161 66.827507,153.290878 68.089317,154.614838 
	C69.055069,155.369766 70.020821,156.124695 71.334618,157.338928 
	C71.824745,157.619095 72.314880,157.899246 73.275726,158.695908 
	C83.099625,163.295197 93.013336,165.367355 103.931335,159.624573 
	C108.407043,156.663437 113.131973,154.011978 117.294586,150.661819 
	C122.355408,146.588760 126.774986,141.813660 128.191986,134.736099 
	C128.191986,134.736099 128.110077,134.426208 128.732773,134.181183 
	C129.131378,133.447144 129.529984,132.713089 130.359909,131.460281 
	C130.759247,130.403931 131.158600,129.347565 132.127869,128.294006 
	C132.507568,128.253433 132.887253,128.212860 133.627655,128.619370 
	C134.380722,128.387375 135.133774,128.155365 135.985321,127.986214 
	C135.985321,127.986214 135.922150,127.887993 136.569946,127.617821 
	C138.377808,121.746407 140.185669,115.874992 142.329407,109.408234 
	C142.676895,106.085922 142.655563,103.113861 138.013245,103.018745 
	C137.334015,103.004829 136.684464,101.542374 136.478790,100.055710 
	C136.892899,93.689133 137.306992,87.322563 137.835800,80.293884 
	C137.686691,79.880661 137.537582,79.467438 137.524567,78.453918 
	C137.017639,77.644073 136.510712,76.834221 136.111023,75.333481 
	C134.756638,69.551498 133.402252,63.769512 132.141800,57.268475 
	C127.092773,51.500355 122.043747,45.732231 116.806084,39.389153 
	C115.943222,38.561714 115.080368,37.734276 114.039421,36.374947 
	C113.723511,36.195679 113.407593,36.016407 113.070961,35.926315 
	C113.070961,35.926315 113.159508,35.903049 112.996529,35.377354 
z"/>
<path fill="#845F4F" opacity="1.000000" stroke="none" 
	d="
M45.055531,98.133408 
	C45.638187,96.341835 46.220840,94.550262 47.179924,92.209244 
	C48.032822,90.966705 48.509296,90.273605 49.001335,90.046806 
	C49.351234,94.000992 49.685570,97.488869 49.682198,101.159409 
	C48.900620,102.529243 47.998604,103.752548 48.088898,104.897614 
	C48.590584,111.259537 49.181679,117.624634 50.104813,123.935600 
	C50.323101,125.427917 51.934464,126.716469 52.915436,128.329376 
	C52.925873,128.559982 52.954483,129.020782 52.960346,129.396118 
	C56.197186,134.907303 59.432533,140.040390 62.656853,145.180420 
	C63.852680,147.086761 65.022621,149.009323 65.786591,150.986908 
	C65.091743,151.099792 64.814690,151.150253 64.537628,151.200699 
	C62.074745,148.785370 59.611858,146.370041 56.937469,143.367645 
	C56.401493,142.552902 56.077019,142.325211 55.752541,142.097519 
	C55.423309,142.011978 55.195454,141.811325 55.009430,140.948044 
	C54.557804,139.959641 54.165722,139.518768 53.773636,139.077896 
	C53.100044,137.814682 52.426456,136.551453 51.755272,134.647781 
	C51.498184,133.675095 51.238697,133.342865 50.979210,133.010635 
	C49.605778,129.345612 48.232349,125.680595 46.448341,121.437271 
	C45.945869,117.335213 45.853977,113.811447 45.844681,109.850525 
	C45.636692,105.653381 45.346111,101.893394 45.055531,98.133408 
z"/>
<path fill="#59351C" opacity="1.000000" stroke="none" 
	d="
M132.047882,57.987530 
	C133.402252,63.769512 134.756638,69.551498 136.032135,75.986298 
	C136.431656,77.444153 136.910065,78.249184 137.388489,79.054214 
	C137.537582,79.467438 137.686691,79.880661 137.463409,80.718521 
	C136.724243,83.805367 136.357498,86.467575 135.979660,88.702087 
	C134.704819,84.830818 133.441086,81.387253 132.146790,77.617172 
	C132.061111,76.858406 132.005966,76.426140 131.974442,75.646729 
	C131.415955,73.838699 130.833847,72.377815 130.172302,70.588455 
	C128.722702,68.889717 127.352547,67.519455 125.721283,65.978165 
	C124.629890,64.906525 123.799606,64.005920 123.026917,62.747101 
	C124.069244,59.901527 125.053978,57.414173 126.399826,54.952400 
	C128.523254,55.981167 130.285568,56.984348 132.047882,57.987530 
z"/>
<path fill="#634024" opacity="1.000000" stroke="none" 
	d="
M51.901291,64.955681 
	C55.454449,58.488621 56.542385,50.393970 64.528336,46.765980 
	C65.667267,47.660046 66.335678,48.331001 66.989182,49.244865 
	C66.974274,49.487774 66.968643,49.974461 66.982071,49.981468 
	C66.995491,49.988480 66.984093,49.970715 66.663101,49.997696 
	C65.550255,50.676834 64.758408,51.328995 63.686417,52.104698 
	C62.604458,52.817955 61.802635,53.407665 60.634605,54.067505 
	C57.821072,56.853912 58.882454,58.813198 61.440704,60.679314 
	C60.246674,61.962139 59.233665,62.976143 58.106728,64.243103 
	C57.922672,64.855774 57.852543,65.215492 57.437542,65.704468 
	C55.617474,69.540680 54.142277,73.247627 52.374199,77.028915 
	C51.090111,77.753571 50.098896,78.403885 49.085758,78.660965 
	C49.597301,76.386543 50.242004,74.528358 50.636806,72.618507 
	C51.160454,70.085342 51.488941,67.511848 51.901291,64.955681 
z"/>
<path fill="#835B40" opacity="1.000000" stroke="none" 
	d="
M97.941017,19.689257 
	C102.994347,20.411636 104.711891,24.604759 106.604256,28.703762 
	C105.195389,31.391335 104.086472,33.679058 102.847664,36.269104 
	C101.814392,37.398926 100.911011,38.226418 99.956696,38.709675 
	C96.762619,34.376984 97.244942,41.238083 95.017227,39.605156 
	C96.590431,32.794662 99.827316,26.625971 97.941017,19.689257 
z"/>
<path fill="#764F31" opacity="1.000000" stroke="none" 
	d="
M102.977547,35.966782 
	C104.086472,33.679058 105.195389,31.391335 106.653671,29.051256 
	C108.627090,30.730185 110.251152,32.461468 112.052429,34.783661 
	C112.539597,35.550728 112.849556,35.726887 113.159508,35.903049 
	C113.159508,35.903049 113.070961,35.926315 113.166321,36.151314 
	C113.580292,36.553154 113.898903,36.729996 114.217506,36.906837 
	C115.080368,37.734276 115.943222,38.561714 116.867722,39.972870 
	C116.665733,41.063965 116.402092,41.571342 115.989273,41.853573 
	C115.545799,41.437466 115.251511,41.246506 114.666328,41.263428 
	C113.591537,43.988251 112.807625,46.505188 111.640625,48.934341 
	C110.628632,46.176540 109.999725,43.506519 109.228233,40.231144 
	C108.664246,41.458813 108.298424,42.255119 107.713181,43.039177 
	C107.493759,43.026928 107.054527,43.042763 106.912804,42.713020 
	C105.545311,40.221542 109.321640,35.102489 102.977547,35.966782 
z"/>
<path fill="#796151" opacity="1.000000" stroke="none" 
	d="
M116.138458,42.078720 
	C116.402092,41.571342 116.665733,41.063965 116.962044,40.260345 
	C122.043747,45.732231 127.092773,51.500355 132.094849,57.628002 
	C130.285568,56.984348 128.523254,55.981167 126.243660,54.654045 
	C124.814392,53.545403 123.902412,52.760696 123.709564,52.594769 
	C121.119789,54.663525 119.005585,56.352386 116.927223,57.643402 
	C119.211647,52.052742 120.454338,46.914623 116.138458,42.078720 
z"/>
<path fill="#B88874" opacity="1.000000" stroke="none" 
	d="
M136.021164,100.750175 
	C136.684464,101.542374 137.334015,103.004829 138.013245,103.018745 
	C142.655563,103.113861 142.676895,106.085922 141.849808,109.868713 
	C140.876816,111.146217 140.362915,111.951660 139.893631,112.782310 
	C137.959824,116.205322 136.039551,119.635979 134.076782,122.648209 
	C134.512802,117.491051 137.001923,112.746613 134.042526,107.593079 
	C134.061386,105.791168 134.056534,104.406219 134.420746,102.972900 
	C134.865906,102.467850 134.941986,102.011169 135.041626,101.368942 
	C135.383850,101.038994 135.702515,100.894585 136.021164,100.750175 
z"/>
<path fill="#524642" opacity="1.000000" stroke="none" 
	d="
M136.249969,100.402939 
	C135.702515,100.894585 135.383850,101.038994 134.816620,101.576614 
	C134.395920,102.320305 134.223801,102.670784 134.051682,103.021263 
	C134.056534,104.406219 134.061386,105.791168 133.778885,107.751572 
	C133.007721,109.230896 132.523911,110.134758 131.985687,111.366180 
	C131.264389,112.788483 130.597488,113.883224 129.750916,114.649796 
	C129.583786,113.581406 129.596344,112.841164 129.777664,111.709991 
	C130.834473,106.796219 132.732361,102.200966 128.762573,97.746964 
	C127.393105,97.275444 126.252922,97.067078 124.880867,96.614105 
	C124.357681,95.776772 124.066360,95.184036 124.148056,94.668091 
	C125.027435,94.744804 125.533798,94.744728 126.420197,94.858696 
	C127.597206,95.038521 128.394180,95.104309 129.335907,95.316925 
	C129.480637,95.463737 129.882202,95.557411 130.104004,95.770844 
	C131.553238,96.311859 132.780685,96.639442 134.392517,96.899895 
	C135.181519,94.265106 135.586136,91.697449 135.990753,89.129791 
	C136.357498,86.467575 136.724243,83.805367 137.406036,81.049568 
	C137.306992,87.322563 136.892899,93.689133 136.249969,100.402939 
z"/>
<path fill="#8D6A5A" opacity="1.000000" stroke="none" 
	d="
M103.199997,159.759384 
	C93.013336,165.367355 83.099625,163.295197 73.212029,158.141205 
	C73.769058,157.345200 74.389778,157.103897 75.232292,157.164810 
	C77.636162,157.975372 79.818245,158.483719 82.292328,159.287781 
	C87.389709,159.382355 92.195084,159.181198 97.331039,158.983429 
	C98.102409,158.983749 98.543198,158.980682 99.307144,158.961273 
	C100.424026,158.301361 101.217758,157.657791 102.339920,157.006134 
	C103.106049,156.988708 103.543739,156.979370 103.847649,157.309998 
	C103.542572,158.353119 103.371284,159.056244 103.199997,159.759384 
z"/>
<path fill="#845F4F" opacity="1.000000" stroke="none" 
	d="
M103.565666,159.691986 
	C103.371284,159.056244 103.542572,158.353119 104.155731,157.169495 
	C105.392754,155.724014 106.187920,154.759018 107.258904,153.712997 
	C108.308769,153.051910 109.082817,152.471848 110.200813,151.906189 
	C111.686943,150.937378 112.829124,149.954147 113.985352,148.982330 
	C113.999390,148.993729 113.971352,148.963608 114.317406,148.942841 
	C115.779350,147.619324 116.895233,146.316559 118.197983,144.743912 
	C119.599106,142.989853 120.813347,141.505676 122.364639,139.967743 
	C124.470856,138.275787 126.240028,136.637589 128.009201,134.999390 
	C126.774986,141.813660 122.355408,146.588760 117.294586,150.661819 
	C113.131973,154.011978 108.407043,156.663437 103.565666,159.691986 
z"/>
<path fill="#D5A794" opacity="1.000000" stroke="none" 
	d="
M45.762085,110.287689 
	C45.853977,113.811447 45.945869,117.335213 46.094116,121.290672 
	C42.831501,122.760445 41.996929,120.289070 41.584297,118.062195 
	C40.694653,113.260971 40.174652,108.391251 40.032810,103.389015 
	C41.379890,103.481262 42.197556,103.734055 43.143990,104.280167 
	C43.509731,105.381943 43.746700,106.190384 43.733150,107.194748 
	C43.939602,108.289391 44.396572,109.188126 45.080719,110.136871 
	C45.307899,110.186890 45.762085,110.287689 45.762085,110.287689 
z"/>
<path fill="#5B3411" opacity="1.000000" stroke="none" 
	d="
M97.582840,19.759615 
	C99.827316,26.625971 96.590431,32.794662 94.749161,39.770088 
	C93.657059,40.870419 92.830086,41.412975 91.962631,41.594387 
	C91.609550,39.819225 91.296951,38.405205 91.126228,36.671623 
	C91.515640,35.233685 91.763168,34.115303 92.004433,32.997604 
	C91.998169,32.998291 91.998375,33.010811 92.223404,32.907295 
	C92.722847,32.598072 92.909309,32.330963 93.305481,31.855854 
	C94.056839,29.782745 94.510544,27.856228 94.964241,25.929712 
	C95.717720,23.896465 96.471199,21.863220 97.582840,19.759615 
z"/>
<path fill="#663E1D" opacity="1.000000" stroke="none" 
	d="
M94.680405,26.105797 
	C94.510544,27.856228 94.056839,29.782745 93.086517,31.967461 
	C92.298462,32.428463 92.107956,32.690182 91.998375,33.010811 
	C91.998375,33.010811 91.998169,32.998291 91.737137,33.190041 
	C90.647987,34.922176 89.819878,36.462559 88.996185,38.001709 
	C89.000610,38.000473 89.000870,37.991413 88.666084,38.027260 
	C87.548752,38.997322 86.766205,39.931545 85.612236,40.894951 
	C84.496475,40.954727 83.752129,40.985313 82.717392,40.868988 
	C81.945877,39.803162 81.464752,38.884247 80.983635,37.965340 
	C85.454620,34.070854 89.925598,30.176369 94.680405,26.105797 
z"/>
<path fill="#764F31" opacity="1.000000" stroke="none" 
	d="
M80.663254,37.983727 
	C81.464752,38.884247 81.945877,39.803162 82.480164,41.141975 
	C77.356918,44.041908 72.180504,46.521935 67.004082,49.001961 
	C66.335678,48.331001 65.667267,47.660046 64.872375,46.652626 
	C69.944885,43.544819 75.143875,40.773472 80.663254,37.983727 
z"/>
<path fill="#4C2C19" opacity="1.000000" stroke="none" 
	d="
M51.680965,65.230507 
	C51.488941,67.511848 51.160454,70.085342 50.636806,72.618507 
	C50.242004,74.528358 49.597301,76.386543 49.060928,79.059692 
	C49.288372,82.262360 49.518715,84.673073 49.769787,87.396378 
	C49.701092,88.116730 49.611671,88.524475 49.400867,89.014397 
	C49.137039,89.230896 49.039131,89.392204 48.985767,89.580505 
	C48.509296,90.273605 48.032822,90.966705 47.286980,91.827850 
	C47.088249,87.363976 46.635311,82.645790 47.380318,78.125008 
	C48.091167,73.811455 50.050270,69.703606 51.680965,65.230507 
z"/>
<path fill="#CFA593" opacity="1.000000" stroke="none" 
	d="
M134.114319,123.063828 
	C136.039551,119.635979 137.959824,116.205322 139.893631,112.782310 
	C140.362915,111.951660 140.876816,111.146217 141.681870,110.166389 
	C140.185669,115.874992 138.377808,121.746407 136.186966,127.635887 
	C135.727615,127.610863 135.651230,127.567780 135.574860,127.524689 
	C135.678848,127.657578 135.782852,127.790474 135.886841,127.923370 
	C135.133774,128.155365 134.380722,128.387375 133.358261,128.022552 
	C133.430679,125.971771 133.772491,124.517799 134.114319,123.063828 
z"/>
<path fill="#B88874" opacity="1.000000" stroke="none" 
	d="
M75.010506,156.862595 
	C74.389778,157.103897 73.769058,157.345200 72.976669,157.882950 
	C72.314880,157.899246 71.824745,157.619095 71.154663,156.792297 
	C70.387375,155.434158 69.800041,154.622650 69.189018,153.451447 
	C69.121033,152.372421 69.076736,151.653061 69.024666,150.524048 
	C69.014069,148.739105 69.011246,147.363831 69.306168,146.007294 
	C70.062637,146.362320 70.521370,146.698608 70.992851,147.405060 
	C73.005142,149.188965 75.004684,150.602722 77.001793,152.362656 
	C76.336411,154.093430 75.673454,155.478012 75.010506,156.862595 
z"/>
<path fill="#855F45" opacity="1.000000" stroke="none" 
	d="
M134.076767,122.648209 
	C133.772491,124.517799 133.430679,125.971771 133.177917,127.799019 
	C132.887253,128.212860 132.507568,128.253433 131.398834,128.199524 
	C130.371674,128.057800 130.073517,128.010559 129.831863,127.533829 
	C129.966110,125.090919 130.043884,123.077484 130.482819,120.978287 
	C133.893600,117.929672 133.606857,114.561836 132.040100,111.038628 
	C132.523911,110.134758 133.007721,109.230896 133.755173,108.168533 
	C137.001923,112.746613 134.512802,117.491051 134.076767,122.648209 
z"/>
<path fill="#A17661" opacity="1.000000" stroke="none" 
	d="
M43.983673,106.998833 
	C43.746700,106.190384 43.509731,105.381943 43.105019,103.961746 
	C41.974236,102.564316 41.011200,101.778633 40.048164,100.992950 
	C40.219051,98.124886 39.933891,94.611092 44.750080,98.010681 
	C45.346111,101.893394 45.636692,105.653381 45.844681,109.850525 
	C45.762085,110.287689 45.307899,110.186890 45.128105,109.790390 
	C44.626762,108.595543 44.305218,107.797188 43.983673,106.998833 
z"/>
<path fill="#996D59" opacity="1.000000" stroke="none" 
	d="
M129.775375,127.963318 
	C130.073517,128.010559 130.371674,128.057800 131.113876,128.198135 
	C131.158600,129.347565 130.759247,130.403931 129.798813,131.792847 
	C128.861847,132.892349 128.485962,133.659271 128.110077,134.426208 
	C128.110077,134.426208 128.191986,134.736099 128.100586,134.867737 
	C126.240028,136.637589 124.470856,138.275787 122.354973,139.628387 
	C121.999855,138.890793 121.991447,138.438782 122.129158,137.695465 
	C122.867836,136.278885 123.460403,135.153625 124.364075,133.883057 
	C126.375252,131.812927 128.075317,129.888123 129.775375,127.963318 
z"/>
<path fill="#8D6A5A" opacity="1.000000" stroke="none" 
	d="
M69.032440,150.933716 
	C69.076736,151.653061 69.121033,152.372421 68.837814,153.531982 
	C68.273705,154.004669 68.037125,154.037140 67.800552,154.069611 
	C66.827507,153.290878 65.854462,152.512161 64.709518,151.467072 
	C64.814690,151.150253 65.091743,151.099792 66.135345,150.993439 
	C67.612068,150.936264 68.322258,150.934982 69.032440,150.933716 
z"/>
<path fill="#524642" opacity="1.000000" stroke="none" 
	d="
M137.456528,78.754066 
	C136.910065,78.249184 136.431656,77.444153 135.978516,76.331749 
	C136.510712,76.834221 137.017639,77.644073 137.456528,78.754066 
z"/>
<path fill="#BF8D78" opacity="1.000000" stroke="none" 
	d="
M39.962250,101.318924 
	C41.011200,101.778633 41.974236,102.564316 42.976246,103.668427 
	C42.197556,103.734055 41.379890,103.481262 40.258766,103.107773 
	C39.928982,102.539688 39.902660,102.092293 39.962250,101.318924 
z"/>
<path fill="#845F4F" opacity="1.000000" stroke="none" 
	d="
M67.944931,154.342224 
	C68.037125,154.037140 68.273705,154.004669 68.861496,153.891663 
	C69.800041,154.622650 70.387375,155.434158 70.980637,156.562653 
	C70.020821,156.124695 69.055069,155.369766 67.944931,154.342224 
z"/>
<path fill="#845F4F" opacity="1.000000" stroke="none" 
	d="
M128.421417,134.303696 
	C128.485962,133.659271 128.861847,132.892349 129.583160,132.052216 
	C129.529984,132.713089 129.131378,133.447144 128.421417,134.303696 
z"/>
<path fill="#8D6A5A" opacity="1.000000" stroke="none" 
	d="
M53.819939,139.375519 
	C54.165722,139.518768 54.557804,139.959641 54.966064,140.717224 
	C54.610241,140.580322 54.238239,140.126724 53.819939,139.375519 
z"/>
<path fill="#796151" opacity="1.000000" stroke="none" 
	d="
M114.128464,36.640892 
	C113.898903,36.729996 113.580292,36.553154 113.176682,36.106728 
	C113.407593,36.016407 113.723511,36.195679 114.128464,36.640892 
z"/>
<path fill="#796151" opacity="1.000000" stroke="none" 
	d="
M113.078018,35.640202 
	C112.849556,35.726887 112.539597,35.550728 112.145203,35.112244 
	C112.372688,35.025730 112.684608,35.201542 113.078018,35.640202 
z"/>
<path fill="#8D6A5A" opacity="1.000000" stroke="none" 
	d="
M50.979904,133.335175 
	C51.238697,133.342865 51.498184,133.675095 51.749184,134.336182 
	C51.487328,134.329926 51.233963,133.994812 50.979904,133.335175 
z"/>
<path fill="#8D6A5A" opacity="1.000000" stroke="none" 
	d="
M55.850800,142.377823 
	C56.077019,142.325211 56.401493,142.552902 56.795826,143.079910 
	C56.560143,143.138855 56.254601,142.898499 55.850800,142.377823 
z"/>
<path fill="#BF8D78" opacity="1.000000" stroke="none" 
	d="
M52.954483,129.020782 
	C52.954483,129.020782 52.925873,128.559982 52.942894,127.910965 
	C52.327568,121.419594 51.695221,115.577248 51.365654,109.778549 
	C52.072186,109.770439 52.475925,109.718681 52.948219,110.021576 
	C53.676060,110.917107 54.335346,111.457970 55.368599,112.033203 
	C57.462528,112.398941 59.182499,112.730316 61.005604,113.409195 
	C62.396599,114.236839 63.684460,114.716980 64.979187,115.578125 
	C64.992004,116.975815 64.997940,117.992500 64.672928,119.017502 
	C63.901707,119.054726 63.461433,119.083641 62.592216,119.077301 
	C60.449089,119.042976 58.734909,119.043915 56.624466,119.043259 
	C52.522949,119.847427 53.851608,122.604630 54.490265,124.522034 
	C55.253586,126.813698 56.798111,128.845154 58.002106,131.330933 
	C57.990482,132.128494 57.981018,132.584427 57.683739,132.893127 
	C55.915443,131.504181 54.434963,130.262482 52.954483,129.020782 
z"/>
<path fill="#A97F6B" opacity="1.000000" stroke="none" 
	d="
M52.960346,129.396118 
	C54.434963,130.262482 55.915443,131.504181 57.724442,133.241455 
	C61.352077,137.170166 64.651192,140.603287 68.195618,144.198669 
	C68.630096,144.903473 68.819260,145.446014 69.008430,145.988556 
	C69.011246,147.363831 69.014069,148.739105 69.024666,150.524048 
	C68.322258,150.934982 67.612068,150.936264 66.553131,150.931030 
	C65.022621,149.009323 63.852680,147.086761 62.656853,145.180420 
	C59.432533,140.040390 56.197186,134.907303 52.960346,129.396118 
z"/>
<path fill="#AC7C65" opacity="1.000000" stroke="none" 
	d="
M51.062870,109.734901 
	C51.695221,115.577248 52.327568,121.419594 52.932457,127.680344 
	C51.934464,126.716469 50.323101,125.427917 50.104813,123.935600 
	C49.181679,117.624634 48.590584,111.259537 48.088898,104.897614 
	C47.998604,103.752548 48.900620,102.529243 49.697220,101.584503 
	C50.387589,104.462929 50.725227,107.098915 51.062870,109.734901 
z"/>
<path fill="#594C4A" opacity="1.000000" stroke="none" 
	d="
M51.365654,109.778549 
	C50.725227,107.098915 50.387589,104.462929 50.034927,101.401848 
	C49.685570,97.488869 49.351234,94.000992 49.001335,90.046806 
	C49.039131,89.392204 49.137039,89.230896 49.540405,89.292984 
	C49.853897,89.690147 49.906471,89.890892 50.082561,90.302750 
	C50.448753,90.766640 50.745064,90.883217 51.493916,90.856674 
	C52.658157,90.658394 53.423489,90.467026 54.511063,90.441536 
	C55.538017,90.742493 56.242729,90.877579 56.852707,91.288383 
	C56.229378,91.798698 55.700779,92.033287 54.833275,92.391815 
	C53.745602,95.682274 52.996826,98.848801 52.185204,102.417343 
	C52.374790,105.101883 52.627228,107.384407 52.879669,109.666924 
	C52.475925,109.718681 52.072186,109.770439 51.365654,109.778549 
z"/>
<path fill="#D8A792" opacity="1.000000" stroke="none" 
	d="
M122.969315,63.105316 
	C123.799606,64.005920 124.629890,64.906525 125.673553,66.358177 
	C125.595451,71.272537 125.303963,75.635857 125.011627,80.332695 
	C125.006874,81.110909 125.002975,81.555595 124.789185,82.090141 
	C124.308830,82.348686 124.126747,82.585365 123.739212,82.792511 
	C122.299652,81.812752 121.153923,80.930504 120.001343,79.660278 
	C120.112511,76.939903 120.414612,74.596924 120.281158,72.279007 
	C120.197853,70.832085 119.457352,69.423012 119.010445,67.628036 
	C118.663193,65.627121 118.317276,63.995129 118.328529,62.284889 
	C120.113579,62.506199 121.541443,62.805759 122.969315,63.105316 
z"/>
<path fill="#442814" opacity="1.000000" stroke="none" 
	d="
M123.026917,62.747101 
	C121.541443,62.805759 120.113579,62.506199 117.935059,62.203621 
	C115.125984,61.828861 113.067558,61.457130 111.006622,60.679726 
	C111.015709,59.193047 111.027298,58.112041 111.292297,56.916855 
	C112.032616,56.535915 112.519516,56.269154 113.064888,56.358910 
	C114.379364,57.157364 115.635376,57.599304 116.891380,58.041245 
	C119.005585,56.352386 121.119789,54.663525 123.709564,52.594769 
	C123.902412,52.760696 124.814392,53.545403 125.882538,54.628460 
	C125.053978,57.414173 124.069244,59.901527 123.026917,62.747101 
z"/>
<path fill="#B88874" opacity="1.000000" stroke="none" 
	d="
M129.882202,95.557411 
	C129.882202,95.557411 129.480637,95.463737 129.133011,95.054703 
	C128.190659,94.430244 127.595940,94.214821 127.001450,93.654861 
	C126.979324,92.621727 126.956985,91.933121 127.159348,90.997574 
	C127.302940,89.489609 127.221832,88.228584 127.508652,86.885551 
	C128.256454,85.672935 128.597198,84.527321 129.024170,83.414787 
	C129.976868,80.932381 130.972626,78.466499 131.950836,75.993881 
	C132.005966,76.426140 132.061111,76.858406 132.082764,78.041397 
	C132.405914,81.858482 132.762558,84.924843 132.735641,88.059021 
	C131.528793,90.603699 130.705490,93.080559 129.882202,95.557411 
z"/>
<path fill="#C69680" opacity="1.000000" stroke="none" 
	d="
M131.974442,75.646729 
	C130.972626,78.466499 129.976868,80.932381 129.024170,83.414787 
	C128.597198,84.527321 128.256454,85.672935 127.354019,86.623657 
	C126.532234,85.702950 126.233017,84.962135 125.937531,83.896072 
	C125.627205,83.047318 125.313141,82.523804 124.999084,82.000282 
	C125.002975,81.555595 125.006874,81.110909 125.284538,80.085182 
	C127.122787,76.641739 128.687271,73.779335 130.251740,70.916931 
	C130.833847,72.377815 131.415955,73.838699 131.974442,75.646729 
z"/>
<path fill="#724C35" opacity="1.000000" stroke="none" 
	d="
M133.119186,87.991203 
	C132.762558,84.924843 132.405914,81.858482 132.113312,78.367905 
	C133.441086,81.387253 134.704819,84.830818 135.979660,88.702087 
	C135.586136,91.697449 135.181519,94.265106 134.400543,96.465805 
	C133.722519,93.396301 133.420853,90.693756 133.119186,87.991203 
z"/>
<path fill="#CD9F8B" opacity="1.000000" stroke="none" 
	d="
M130.172302,70.588455 
	C128.687271,73.779335 127.122787,76.641739 125.285385,79.751656 
	C125.303963,75.635857 125.595451,71.272537 125.934662,66.529213 
	C127.352547,67.519455 128.722702,68.889717 130.172302,70.588455 
z"/>
<path fill="#D8A792" opacity="1.000000" stroke="none" 
	d="
M58.220657,63.990150 
	C59.233665,62.976143 60.246674,61.962139 61.804989,60.653511 
	C64.913483,59.976147 67.476669,59.593403 70.020630,59.602753 
	C68.975899,65.721901 67.950378,71.448967 66.641510,77.327538 
	C64.642258,78.351166 62.926357,79.223282 60.909126,80.063026 
	C60.406021,80.020157 60.204247,80.009659 59.998520,79.749687 
	C59.994572,79.500221 59.994438,79.001228 60.277916,78.759552 
	C60.674759,74.195457 60.883427,69.870796 60.781155,65.553497 
	C60.768341,65.012466 59.114269,64.510315 58.220657,63.990150 
z"/>
<path fill="#C69680" opacity="1.000000" stroke="none" 
	d="
M59.994438,79.001228 
	C59.994438,79.001228 59.994572,79.500221 60.012711,80.077652 
	C60.047077,80.873337 60.063297,81.091583 59.989388,81.636078 
	C59.559860,83.932816 59.220463,85.903297 59.080910,88.153137 
	C60.169579,89.286858 61.058399,90.141228 61.531403,90.995529 
	C59.726200,91.001198 58.336823,91.006927 56.947441,91.012665 
	C56.242729,90.877579 55.538017,90.742493 54.444138,90.062805 
	C53.660683,86.338005 53.266392,83.157814 52.888824,79.596786 
	C52.826057,78.462173 52.746571,77.708374 52.667084,76.954582 
	C54.142277,73.247627 55.617474,69.540680 57.425148,66.068504 
	C58.503231,70.535934 59.248833,74.768578 59.994438,79.001228 
z"/>
<path fill="#855F45" opacity="1.000000" stroke="none" 
	d="
M66.989182,49.244869 
	C72.180504,46.521935 77.356918,44.041908 82.770561,41.288887 
	C83.752129,40.985313 84.496475,40.954727 85.617661,41.178894 
	C85.995918,41.621891 85.997330,41.810123 85.719604,42.142830 
	C84.946259,43.162807 84.452042,44.038315 83.627701,44.976440 
	C81.866463,46.047184 80.435341,47.055313 78.658447,48.122963 
	C75.901253,49.241035 73.489830,50.299583 70.880402,51.030540 
	C69.444489,50.460117 68.206566,50.217289 66.968643,49.974461 
	C66.968643,49.974461 66.974274,49.487774 66.989182,49.244869 
z"/>
<path fill="#5C3E2A" opacity="1.000000" stroke="none" 
	d="
M70.039856,59.210663 
	C67.476669,59.593403 64.913483,59.976147 61.986008,60.384689 
	C58.882454,58.813198 57.821072,56.853912 60.877243,54.346569 
	C62.967125,54.691490 64.448166,54.827488 66.207275,55.257568 
	C69.757011,55.437561 73.028687,55.323471 76.260071,55.475967 
	C76.483627,56.173164 76.747467,56.603779 77.019379,57.348633 
	C77.025887,58.081898 77.024338,58.500931 76.778755,59.089417 
	C76.363029,59.357616 76.191338,59.456360 75.619308,59.389725 
	C73.492599,59.219780 71.766228,59.215221 70.039856,59.210663 
z"/>
<path fill="#D4A28E" opacity="1.000000" stroke="none" 
	d="
M60.277916,78.759552 
	C59.248833,74.768578 58.503231,70.535934 57.770020,65.939247 
	C57.852543,65.215492 57.922672,64.855774 58.106728,64.243103 
	C59.114269,64.510315 60.768341,65.012466 60.781155,65.553497 
	C60.883427,69.870796 60.674759,74.195457 60.277916,78.759552 
z"/>
<path fill="#724C35" opacity="1.000000" stroke="none" 
	d="
M52.374203,77.028915 
	C52.746571,77.708374 52.826057,78.462173 52.643181,79.836166 
	C51.503559,82.665504 50.626305,84.874641 49.749054,87.083778 
	C49.518715,84.673073 49.288372,82.262360 49.082855,79.452927 
	C50.098896,78.403885 51.090111,77.753571 52.374203,77.028915 
z"/>
<path fill="#724C35" opacity="1.000000" stroke="none" 
	d="
M65.929207,54.963486 
	C64.448166,54.827488 62.967125,54.691490 61.243446,54.276436 
	C61.802635,53.407665 62.604458,52.817955 63.878696,52.351311 
	C65.228775,51.639824 66.106430,50.805267 66.984093,49.970715 
	C66.984093,49.970715 66.995491,49.988480 66.982071,49.981468 
	C68.206566,50.217289 69.444489,50.460117 70.797607,51.329597 
	C69.251610,52.958660 67.590408,53.961071 65.929207,54.963486 
z"/>
<path fill="#855F45" opacity="1.000000" stroke="none" 
	d="
M66.663101,49.997696 
	C66.106430,50.805267 65.228775,51.639824 64.158836,52.227764 
	C64.758408,51.328995 65.550255,50.676834 66.663101,49.997696 
z"/>
<path fill="#764F31" opacity="1.000000" stroke="none" 
	d="
M92.003113,41.955532 
	C92.830086,41.412975 93.657059,40.870419 94.752106,40.162933 
	C97.244942,41.238083 96.762619,34.376984 99.960602,39.082657 
	C100.023224,40.548809 100.031006,41.297741 99.769325,42.234821 
	C96.267921,45.195412 93.035973,47.967857 89.859558,50.401787 
	C90.597961,47.954369 91.280838,45.845470 91.969894,43.440010 
	C91.985092,42.747471 91.994102,42.351501 92.003113,41.955532 
z"/>
<path fill="#663E1D" opacity="1.000000" stroke="none" 
	d="
M100.038788,42.046677 
	C100.031006,41.297741 100.023224,40.548809 100.011536,39.426895 
	C100.911011,38.226418 101.814392,37.398926 102.847664,36.269104 
	C109.321640,35.102489 105.545311,40.221542 106.734665,42.950981 
	C106.138885,43.681770 105.579506,43.844856 104.708908,43.856010 
	C102.944710,43.151611 101.491753,42.599144 100.038788,42.046677 
z"/>
<path fill="#643D1E" opacity="1.000000" stroke="none" 
	d="
M116.927223,57.643398 
	C115.635376,57.599304 114.379364,57.157364 113.082062,56.030815 
	C113.040833,54.908333 113.040901,54.470463 113.264221,53.923409 
	C113.753860,53.599075 113.942101,53.329365 114.326431,52.758236 
	C114.719513,48.692764 114.838364,44.874153 114.957214,41.055542 
	C115.251511,41.246506 115.545799,41.437466 115.989273,41.853573 
	C120.454338,46.914623 119.211647,52.052742 116.927223,57.643398 
z"/>
<path fill="#663E1D" opacity="1.000000" stroke="none" 
	d="
M107.932602,43.051426 
	C108.298424,42.255119 108.664246,41.458813 109.228233,40.231144 
	C109.999725,43.506519 110.628632,46.176540 111.635925,49.302704 
	C112.005409,50.496670 111.996490,51.234486 111.991760,51.983467 
	C111.995949,51.994625 111.981186,51.995590 111.752899,52.095703 
	C111.248207,52.401985 111.056664,52.669048 110.611588,53.032829 
	C108.169533,53.708771 106.065880,54.348877 104.008247,54.647694 
	C104.704979,52.875175 105.355690,51.443939 106.269882,49.763577 
	C106.999779,47.360107 107.466194,45.205769 107.932602,43.051426 
z"/>
<path fill="#796151" opacity="1.000000" stroke="none" 
	d="
M107.713181,43.039177 
	C107.466194,45.205769 106.999779,47.360107 105.920029,49.783936 
	C103.915619,51.165524 102.667213,52.601170 101.092033,53.295765 
	C99.613388,53.947784 97.789345,53.816483 96.416260,53.882103 
	C99.483536,50.492210 102.251831,47.250072 105.020134,44.007938 
	C105.579506,43.844856 106.138885,43.681770 106.876389,43.280724 
	C107.054527,43.042763 107.493759,43.026928 107.713181,43.039177 
z"/>
<path fill="#4E2C10" opacity="1.000000" stroke="none" 
	d="
M111.987579,51.972305 
	C111.996490,51.234486 112.005409,50.496670 112.019020,49.390488 
	C112.807625,46.505188 113.591537,43.988251 114.666328,41.263428 
	C114.838364,44.874153 114.719513,48.692764 114.063316,52.754120 
	C113.350937,52.995644 113.175903,52.994431 112.888428,52.773022 
	C112.571106,52.280666 112.308311,52.087158 111.987579,51.972305 
z"/>
<path fill="#FEFEFE" opacity="1.000000" stroke="none" 
	d="
M134.420746,102.972900 
	C134.223801,102.670784 134.395920,102.320305 134.793060,101.762154 
	C134.941986,102.011169 134.865906,102.467850 134.420746,102.972900 
z"/>
<path fill="#D5A794" opacity="1.000000" stroke="none" 
	d="
M126.934647,91.244507 
	C126.956985,91.933121 126.979324,92.621727 126.805794,93.729309 
	C126.355843,94.285774 126.165924,94.484573 126.040169,94.744659 
	C125.533798,94.744728 125.027435,94.744804 123.921173,94.499611 
	C120.431175,93.992447 117.531006,93.456833 114.654449,93.562790 
	C112.664024,93.636101 110.706200,94.594696 108.601929,95.176773 
	C108.470039,95.195831 108.203232,95.202271 107.953728,95.107986 
	C107.529793,94.979172 107.355370,94.944626 107.108749,94.716339 
	C107.036560,94.522583 106.940887,94.120270 107.013885,93.747360 
	C107.733643,90.975616 108.380402,88.576775 109.430153,86.118301 
	C116.782234,83.669777 122.182678,86.387901 126.934647,91.244507 
z"/>
<path fill="#C6A597" opacity="1.000000" stroke="none" 
	d="
M108.733810,95.157707 
	C110.706200,94.594696 112.664024,93.636101 114.654449,93.562790 
	C117.531006,93.456833 120.431175,93.992447 123.548157,94.422829 
	C124.066360,95.184036 124.357681,95.776772 124.677811,96.899132 
	C123.121094,98.291000 121.535561,99.153229 119.621964,99.875092 
	C116.703491,98.840012 114.082977,98.021317 111.537491,97.013191 
	C110.517899,96.609398 109.663437,95.788658 108.733810,95.157707 
z"/>
<path fill="#B18B7D" opacity="1.000000" stroke="none" 
	d="
M128.991852,98.010117 
	C132.732361,102.200966 130.834473,106.796219 129.474380,111.621033 
	C126.998283,109.940964 124.994232,107.958908 123.018051,105.609970 
	C122.991966,104.509583 122.938004,103.776085 123.297562,103.031815 
	C128.078735,104.098549 127.876022,100.359558 128.991852,98.010117 
z"/>
<path fill="#C09380" opacity="1.000000" stroke="none" 
	d="
M128.762573,97.746964 
	C127.876022,100.359558 128.078735,104.098549 123.050629,102.859039 
	C121.576782,101.803162 120.763405,100.909309 119.950027,100.015457 
	C121.535561,99.153229 123.121094,98.291000 124.909683,97.143738 
	C126.252922,97.067078 127.393105,97.275444 128.762573,97.746964 
z"/>
<path fill="#D1AD9F" opacity="1.000000" stroke="none" 
	d="
M122.990181,105.976860 
	C124.994232,107.958908 126.998283,109.940964 129.305618,112.011978 
	C129.596344,112.841164 129.583786,113.581406 129.775635,114.650810 
	C129.980042,114.979980 129.973419,114.929726 129.595062,114.789207 
	C128.158905,114.798088 127.101105,114.947479 125.894035,114.787094 
	C124.487267,111.945641 123.229767,109.413971 122.033920,106.640732 
	C122.356323,106.179062 122.654526,106.038292 122.990181,105.976860 
z"/>
<path fill="#AC7C65" opacity="1.000000" stroke="none" 
	d="
M132.735641,88.059021 
	C133.420853,90.693756 133.722519,93.396301 134.016144,96.532944 
	C132.780685,96.639442 131.553238,96.311859 130.104004,95.770844 
	C130.705490,93.080559 131.528793,90.603699 132.735641,88.059021 
z"/>
<path fill="#996D59" opacity="1.000000" stroke="none" 
	d="
M131.985687,111.366180 
	C133.606857,114.561836 133.893600,117.929672 130.437256,120.501556 
	C129.960800,118.842072 129.891068,117.573570 129.844635,116.082123 
	C129.926010,115.551979 129.961182,115.242157 129.973419,114.929726 
	C129.973419,114.929726 129.980042,114.979980 129.955322,114.978973 
	C130.597488,113.883224 131.264389,112.788483 131.985687,111.366180 
z"/>
<path fill="#C6A597" opacity="1.000000" stroke="none" 
	d="
M126.420197,94.858696 
	C126.165924,94.484573 126.355843,94.285774 126.805573,94.073830 
	C127.595940,94.214821 128.190659,94.430244 128.988281,94.907890 
	C128.394180,95.104309 127.597206,95.038521 126.420197,94.858696 
z"/>
<path fill="#A17661" opacity="1.000000" stroke="none" 
	d="
M97.000458,158.980042 
	C92.195084,159.181198 87.389709,159.382355 82.507072,158.995972 
	C82.949608,156.609604 83.469406,154.810760 84.398148,153.017517 
	C88.531647,153.009888 92.256195,152.996674 95.985168,153.371506 
	C96.326546,155.499710 96.663506,157.239883 97.000458,158.980042 
z"/>
<path fill="#AC806C" opacity="1.000000" stroke="none" 
	d="
M97.331039,158.983429 
	C96.663506,157.239883 96.326546,155.499710 96.158691,153.131668 
	C96.880836,152.330261 97.433884,152.156723 98.224457,152.262238 
	C101.302345,152.958862 104.142715,153.376450 106.983086,153.794037 
	C106.187920,154.759018 105.392754,155.724014 104.289520,156.829514 
	C103.543739,156.979370 103.106049,156.988708 101.985596,157.006119 
	C100.529892,157.668655 99.756943,158.323151 98.983986,158.977631 
	C98.543198,158.980682 98.102409,158.983749 97.331039,158.983429 
z"/>
<path fill="#A97F6B" opacity="1.000000" stroke="none" 
	d="
M83.989212,153.011932 
	C83.469406,154.810760 82.949608,156.609604 82.215073,158.700256 
	C79.818245,158.483719 77.636162,157.975372 75.232292,157.164810 
	C75.673454,155.478012 76.336411,154.093430 77.404953,152.360245 
	C78.886208,152.007568 79.961876,152.003494 81.352463,152.021973 
	C82.441338,152.366989 83.215271,152.689453 83.989212,153.011932 
z"/>
<path fill="#A17661" opacity="1.000000" stroke="none" 
	d="
M99.307144,158.961273 
	C99.756943,158.323151 100.529892,157.668655 101.657166,157.014191 
	C101.217758,157.657791 100.424026,158.301361 99.307144,158.961273 
z"/>
<path fill="#AC806C" opacity="1.000000" stroke="none" 
	d="
M121.983047,137.986771 
	C121.991447,138.438782 121.999855,138.890793 122.017929,139.682159 
	C120.813347,141.505676 119.599106,142.989853 117.854401,144.772903 
	C116.206421,146.369064 115.088890,147.666336 113.971359,148.963608 
	C113.971352,148.963608 113.999390,148.993729 113.635445,148.990814 
	C112.166115,149.327347 111.060738,149.666763 109.678207,149.867889 
	C108.947456,148.853912 108.493866,147.978256 108.339714,147.042770 
	C109.045654,146.956985 109.452156,146.931015 110.216988,146.897415 
	C111.070099,145.949982 111.564888,145.010193 112.296875,144.056488 
	C112.534081,144.042572 113.008270,144.011276 113.373016,144.003937 
	C116.486198,141.993332 119.234619,139.990051 121.983047,137.986771 
z"/>
<path fill="#BE8F7B" opacity="1.000000" stroke="none" 
	d="
M108.040276,147.102585 
	C108.493866,147.978256 108.947456,148.853912 109.673920,150.183167 
	C109.916809,151.055099 109.886833,151.473434 109.856857,151.891785 
	C109.082817,152.471848 108.308769,153.051910 107.258904,153.713013 
	C104.142715,153.376450 101.302345,152.958862 98.403961,152.017761 
	C98.956665,150.732452 99.567398,149.970657 100.521721,149.157166 
	C102.295341,148.372879 103.725380,147.640274 105.514999,146.940231 
	C106.596481,147.016037 107.318382,147.059311 108.040276,147.102585 
z"/>
<path fill="#996D59" opacity="1.000000" stroke="none" 
	d="
M114.317413,148.942841 
	C115.088890,147.666336 116.206421,146.369064 117.667534,145.042786 
	C116.895233,146.316559 115.779350,147.619324 114.317413,148.942841 
z"/>
<path fill="#996D59" opacity="1.000000" stroke="none" 
	d="
M110.200806,151.906189 
	C109.886833,151.473434 109.916809,151.055099 109.951073,150.321472 
	C111.060738,149.666763 112.166115,149.327347 113.621407,148.979416 
	C112.829124,149.954147 111.686943,150.937378 110.200806,151.906189 
z"/>
<path fill="#BF8D78" opacity="1.000000" stroke="none" 
	d="
M43.733150,107.194748 
	C44.305218,107.797188 44.626762,108.595543 44.900925,109.740379 
	C44.396572,109.188126 43.939602,108.289391 43.733150,107.194748 
z"/>
<path fill="#6A4421" opacity="1.000000" stroke="none" 
	d="
M91.962631,41.594387 
	C91.994102,42.351501 91.985092,42.747471 91.679146,43.626862 
	C89.293930,45.835629 87.205643,47.560970 85.084366,48.906830 
	C84.686852,47.322842 84.322334,46.118328 83.957817,44.913818 
	C84.452042,44.038315 84.946259,43.162807 86.017548,42.001442 
	C87.396706,40.474194 88.198792,39.232803 89.000870,37.991417 
	C89.000870,37.991413 89.000610,38.000473 89.255875,37.896027 
	C90.002220,37.524784 90.493286,37.257984 90.984360,36.991184 
	C91.296951,38.405205 91.609550,39.819225 91.962631,41.594387 
z"/>
<path fill="#764F31" opacity="1.000000" stroke="none" 
	d="
M91.126236,36.671623 
	C90.493286,37.257984 90.002220,37.524784 89.251457,37.897263 
	C89.819878,36.462559 90.647987,34.922176 91.743401,33.189358 
	C91.763168,34.115303 91.515640,35.233685 91.126236,36.671623 
z"/>
<path fill="#764F31" opacity="1.000000" stroke="none" 
	d="
M92.223404,32.907295 
	C92.107956,32.690182 92.298462,32.428463 92.788864,32.114052 
	C92.909309,32.330963 92.722847,32.598072 92.223404,32.907295 
z"/>
<path fill="#764F31" opacity="1.000000" stroke="none" 
	d="
M88.666092,38.027260 
	C88.198792,39.232803 87.396706,40.474194 86.296677,41.856968 
	C85.997330,41.810123 85.995918,41.621891 85.989075,41.149712 
	C86.766205,39.931545 87.548752,38.997322 88.666092,38.027260 
z"/>
<path fill="#A97F6B" opacity="1.000000" stroke="none" 
	d="
M49.769783,87.396378 
	C50.626305,84.874641 51.503559,82.665504 52.626457,80.216995 
	C53.266392,83.157814 53.660683,86.338005 54.121895,89.896927 
	C53.423489,90.467026 52.658157,90.658394 51.345871,90.672653 
	C50.566341,90.262405 50.286385,90.127769 49.959042,90.091637 
	C49.906471,89.890892 49.853897,89.690147 49.661789,89.210808 
	C49.611671,88.524475 49.701092,88.116730 49.769783,87.396378 
z"/>
<path fill="#B88874" opacity="1.000000" stroke="none" 
	d="
M135.936081,127.954788 
	C135.782852,127.790474 135.678848,127.657578 135.574860,127.524689 
	C135.651230,127.567780 135.727615,127.610863 135.863068,127.770973 
	C135.922150,127.887993 135.985321,127.986214 135.936081,127.954788 
z"/>
<path fill="#E0B19D" opacity="1.000000" stroke="none" 
	d="
M69.306168,146.007294 
	C68.819260,145.446014 68.630096,144.903473 68.179352,143.831741 
	C65.442581,139.410385 63.904732,135.525406 68.355515,131.723724 
	C69.163689,131.850052 69.623032,131.936234 70.156639,132.333420 
	C70.594116,133.642349 70.957336,134.640244 71.230164,136.046204 
	C72.046402,138.910614 72.953041,141.366989 73.905975,144.179993 
	C74.622269,145.044785 75.292274,145.552963 75.937256,146.051651 
	C75.912247,146.042160 75.875656,146.081757 75.861053,146.402969 
	C75.896027,147.149857 75.945602,147.575546 75.702576,148.115906 
	C73.933342,147.832031 72.456718,147.433472 70.980103,147.034912 
	C70.521370,146.698608 70.062637,146.362320 69.306168,146.007294 
z"/>
<path fill="#C09380" opacity="1.000000" stroke="none" 
	d="
M70.992851,147.405060 
	C72.456718,147.433472 73.933342,147.832031 76.004883,148.242920 
	C78.079048,149.503311 79.558289,150.751358 81.037537,151.999405 
	C79.961876,152.003494 78.886208,152.007568 77.407387,152.014053 
	C75.004684,150.602722 73.005142,149.188965 70.992851,147.405060 
z"/>
<path fill="#B88874" opacity="1.000000" stroke="none" 
	d="
M129.821335,116.305061 
	C129.891068,117.573570 129.960800,118.842072 130.076096,120.587318 
	C130.043884,123.077484 129.966110,125.090919 129.831863,127.533829 
	C128.075317,129.888123 126.375252,131.812927 124.331764,133.868317 
	C123.988342,133.998886 123.926773,133.966339 123.950150,133.596710 
	C123.986191,132.485580 123.998863,131.744080 124.299301,130.860657 
	C125.058090,129.812912 125.529106,128.907059 126.261147,127.776001 
	C127.413200,123.900475 124.502472,125.406425 122.659218,124.820786 
	C120.189934,124.462166 118.084625,124.253700 115.662872,124.010063 
	C114.574265,123.637360 113.802109,123.299820 113.017723,122.572601 
	C113.013382,121.141243 113.021278,120.099564 113.450409,119.041000 
	C115.558540,119.081306 117.245445,119.138489 119.052322,119.558426 
	C124.883293,122.255112 126.856110,121.646095 129.308365,116.711563 
	C129.480713,116.577789 129.821335,116.305061 129.821335,116.305061 
z"/>
<path fill="#BE8F7B" opacity="1.000000" stroke="none" 
	d="
M122.129150,137.695465 
	C119.234619,139.990051 116.486198,141.993332 113.521240,143.688141 
	C115.558006,138.789200 118.476074,134.948853 123.926773,133.966339 
	C123.926773,133.966339 123.988342,133.998886 124.020660,134.013626 
	C123.460403,135.153625 122.867836,136.278885 122.129150,137.695465 
z"/>
<path fill="#DEC2B7" opacity="1.000000" stroke="none" 
	d="
M60.902470,113.061691 
	C59.182499,112.730316 57.462528,112.398941 55.384647,111.657928 
	C55.004601,110.497459 54.982460,109.746620 55.346107,108.998947 
	C57.477573,107.645432 59.223255,106.288765 61.354923,104.949036 
	C63.827579,104.718224 65.914246,104.470474 68.345657,104.131134 
	C69.775078,104.400848 70.859749,104.762154 72.006935,105.389771 
	C72.605133,106.078476 73.140831,106.500870 74.039383,106.946030 
	C74.644524,106.976234 74.886795,106.983681 75.298386,106.936005 
	C75.467720,106.880898 75.819786,106.827217 76.044022,107.107841 
	C78.075623,107.242462 79.882980,107.096451 81.763855,107.303192 
	C81.523857,108.775970 81.210342,109.896004 80.584595,111.061249 
	C79.854233,111.730759 79.436119,112.355057 79.011131,113.322174 
	C79.002586,114.122452 79.000916,114.579903 78.632462,115.203018 
	C75.517860,115.524429 72.770027,115.680191 70.000259,115.459427 
	C67.603683,111.487572 64.213303,112.453232 60.902470,113.061691 
z"/>
<path fill="#E0B19D" opacity="1.000000" stroke="none" 
	d="
M63.021160,119.112564 
	C63.461433,119.083641 63.901707,119.054726 65.137024,119.024239 
	C70.957016,118.659225 75.981949,118.295776 80.971779,118.291931 
	C81.236130,120.090660 81.535591,121.529778 81.958344,123.295395 
	C84.640442,127.405952 87.999992,129.796204 93.171516,129.835739 
	C94.697342,129.926086 95.808258,129.935379 97.167130,130.098297 
	C97.605537,130.786163 97.795982,131.320389 97.527237,131.902405 
	C91.342430,131.710297 85.616837,131.470413 79.576202,131.190704 
	C78.842293,131.091476 78.423416,131.032074 78.057549,130.635345 
	C78.986794,129.466019 79.863029,128.633972 80.739265,127.801941 
	C80.720726,127.256638 80.702187,126.711334 80.683647,126.166031 
	C78.123428,126.108116 75.563217,126.050201 72.574272,125.994789 
	C70.430260,126.012497 68.714966,126.027710 66.896927,125.814285 
	C66.530037,125.389412 66.265892,125.193176 65.962242,124.646667 
	C64.955544,122.568451 63.988350,120.840508 63.021160,119.112564 
z"/>
<path fill="#C09380" opacity="1.000000" stroke="none" 
	d="
M66.999680,126.042923 
	C68.714966,126.027710 70.430260,126.012497 72.572792,126.392029 
	C73.005531,127.843834 73.011024,128.900909 72.650452,129.958954 
	C67.711433,128.504501 67.445076,128.611832 68.006691,131.683578 
	C63.904732,135.525406 65.442581,139.410385 67.934036,143.669495 
	C64.651192,140.603287 61.352077,137.170166 58.012260,133.388702 
	C57.981018,132.584427 57.990482,132.128494 58.383492,131.332260 
	C61.511246,129.342285 64.255463,127.692604 66.999680,126.042923 
z"/>
<path fill="#C39481" opacity="1.000000" stroke="none" 
	d="
M81.006889,117.932327 
	C75.981949,118.295776 70.957016,118.659225 65.467979,119.015930 
	C64.997940,117.992500 64.992004,116.975815 65.346710,115.554565 
	C67.145645,115.378662 68.583923,115.607307 70.022202,115.835953 
	C72.770027,115.680191 75.517860,115.524429 78.944260,115.170372 
	C80.246727,114.584900 80.870613,114.197723 82.158394,113.398537 
	C80.568054,113.186256 79.793030,113.082809 79.018005,112.979355 
	C79.436119,112.355057 79.854233,111.730759 80.974472,111.082062 
	C82.827362,108.747620 83.989578,106.443176 85.124481,104.125366 
	C85.777153,102.792404 86.385590,101.437782 87.053177,100.450378 
	C87.395821,102.210098 87.699219,103.612350 87.736755,105.297913 
	C87.256905,107.708168 87.042923,109.835106 86.600967,112.144226 
	C86.219955,112.880714 86.066910,113.435020 85.702087,114.095779 
	C85.236946,114.404640 85.046860,114.655106 84.597702,114.993546 
	C83.185860,115.999763 82.096375,116.966042 81.006889,117.932327 
z"/>
<path fill="#D4A28E" opacity="1.000000" stroke="none" 
	d="
M66.896927,125.814285 
	C64.255463,127.692604 61.511246,129.342285 58.385647,130.990631 
	C56.798111,128.845154 55.253586,126.813698 54.490265,124.522034 
	C53.851608,122.604630 52.522949,119.847427 56.625450,119.429413 
	C58.773853,126.726395 59.008442,126.861717 66.001747,124.996941 
	C66.265892,125.193176 66.530037,125.389412 66.896927,125.814285 
z"/>
<path fill="#DCAC97" opacity="1.000000" stroke="none" 
	d="
M65.962242,124.646667 
	C59.008442,126.861717 58.773853,126.726395 57.021717,119.431007 
	C58.734909,119.043915 60.449089,119.042976 62.592216,119.077301 
	C63.988350,120.840508 64.955544,122.568451 65.962242,124.646667 
z"/>
<path fill="#A27F73" opacity="1.000000" stroke="none" 
	d="
M54.960327,108.995789 
	C54.982460,109.746620 55.004601,110.497459 55.010689,111.623566 
	C54.335346,111.457970 53.676060,110.917107 52.948219,110.021576 
	C52.627228,107.384407 52.374790,105.101883 52.447128,102.531837 
	C55.234955,101.479515 57.698013,100.714722 60.083977,100.269958 
	C59.642220,101.366814 59.277550,102.143631 58.558739,102.964951 
	C57.123177,105.004906 56.041752,107.000351 54.960327,108.995789 
z"/>
<path fill="#E6BDAE" opacity="1.000000" stroke="none" 
	d="
M70.000259,115.459427 
	C68.583923,115.607307 67.145645,115.378662 65.339844,115.173569 
	C63.684460,114.716980 62.396599,114.236839 61.005604,113.409195 
	C64.213303,112.453232 67.603683,111.487572 70.000259,115.459427 
z"/>
<path fill="#CD9F8B" opacity="1.000000" stroke="none" 
	d="
M56.852707,91.288383 
	C58.336823,91.006927 59.726200,91.001198 61.855110,91.132980 
	C63.472485,91.559372 64.350334,91.848251 65.178955,92.510818 
	C65.037666,93.883759 64.945618,94.882996 64.929199,95.933952 
	C65.004845,95.985664 64.860100,95.870605 64.528687,95.910065 
	C63.458416,96.646858 62.719559,97.344200 61.985390,98.009766 
	C61.990086,97.977989 62.054184,97.982101 61.757500,98.000694 
	C61.069706,98.073196 60.678600,98.127106 59.879349,98.123291 
	C54.624763,98.664101 56.749493,94.093445 55.172180,92.267883 
	C55.700779,92.033287 56.229378,91.798698 56.852707,91.288383 
z"/>
<path fill="#B18B7D" opacity="1.000000" stroke="none" 
	d="
M54.833275,92.391815 
	C56.749493,94.093445 54.624763,98.664101 59.877724,98.374466 
	C60.240082,99.015633 60.195927,99.347916 60.180511,99.746719 
	C60.209251,99.813240 60.161072,99.949928 60.161072,99.949928 
	C57.698013,100.714722 55.234955,101.479515 52.509975,102.129814 
	C52.996826,98.848801 53.745602,95.682274 54.833275,92.391815 
z"/>
<path fill="#845F4F" opacity="1.000000" stroke="none" 
	d="
M50.082561,90.302750 
	C50.286385,90.127769 50.566341,90.262405 50.946960,90.679565 
	C50.745064,90.883217 50.448753,90.766640 50.082561,90.302750 
z"/>
<path fill="#E7B7A4" opacity="1.000000" stroke="none" 
	d="
M111.009125,61.085396 
	C113.067558,61.457130 115.125984,61.828861 117.577881,62.281868 
	C118.317276,63.995129 118.663193,65.627121 118.731041,67.868378 
	C117.634102,72.297424 116.815231,76.117203 115.630531,80.034370 
	C111.526123,81.427650 107.787552,82.723549 103.660126,84.012772 
	C100.701164,85.330261 97.786736,86.251480 95.647308,88.079636 
	C92.914810,90.414581 91.392654,90.080383 89.111519,87.508057 
	C87.639626,85.848282 85.114311,85.122688 82.864304,83.962051 
	C82.667526,83.945671 82.272667,83.938919 82.105087,83.684563 
	C80.921555,82.458336 79.905586,81.486465 78.936134,80.145172 
	C80.256424,79.675728 81.623444,79.233650 82.783730,79.549934 
	C84.919479,80.132111 86.933670,81.160194 89.396606,82.004669 
	C90.856117,82.011345 91.917542,82.015800 93.049133,82.373398 
	C94.085762,83.094322 95.327003,84.043175 95.974731,83.736885 
	C100.657257,81.522644 105.406998,79.345833 109.748077,76.554688 
	C112.237740,74.953941 115.399139,72.505173 113.650375,68.908241 
	C112.385887,66.307388 111.693794,62.098145 106.639130,63.055878 
	C105.543236,62.715130 104.781448,62.383694 104.199493,61.684357 
	C106.589249,61.239437 108.799187,61.162418 111.009125,61.085396 
z"/>
<path fill="#724C35" opacity="1.000000" stroke="none" 
	d="
M104.048981,84.019447 
	C107.787552,82.723549 111.526123,81.427650 116.027802,80.098938 
	C117.863335,80.060173 118.935760,80.054214 120.008194,80.048256 
	C121.153923,80.930504 122.299652,81.812752 123.856445,83.078232 
	C124.822937,83.714745 125.378365,83.968033 125.933800,84.221313 
	C126.233017,84.962135 126.532234,85.702950 126.986084,86.705666 
	C127.221832,88.228584 127.302940,89.489609 127.159348,90.997574 
	C122.182678,86.387901 116.782234,83.669777 109.008667,86.053253 
	C106.764122,86.040291 105.344063,86.032753 103.910080,85.689507 
	C103.947090,84.909019 103.998039,84.464233 104.048981,84.019447 
z"/>
<path fill="#E3B39C" opacity="1.000000" stroke="none" 
	d="
M120.001343,79.660278 
	C118.935760,80.054214 117.863335,80.060173 116.393631,80.001556 
	C116.815231,76.117203 117.634102,72.297424 118.732368,68.237297 
	C119.457352,69.423012 120.197853,70.832085 120.281158,72.279007 
	C120.414612,74.596924 120.112511,76.939903 120.001343,79.660278 
z"/>
<path fill="#CD9F8B" opacity="1.000000" stroke="none" 
	d="
M125.937531,83.896072 
	C125.378365,83.968033 124.822937,83.714745 124.150269,83.175751 
	C124.126747,82.585365 124.308830,82.348686 124.789185,82.090141 
	C125.313141,82.523804 125.627205,83.047318 125.937531,83.896072 
z"/>
<path fill="#3A1D0B" opacity="1.000000" stroke="none" 
	d="
M111.006622,60.679726 
	C108.799187,61.162418 106.589249,61.239437 103.866165,61.701447 
	C102.913467,62.026325 102.473915,61.966209 102.026886,61.708244 
	C102.019417,61.510391 101.929535,61.124741 101.993347,60.756977 
	C104.990540,59.212421 107.923920,58.035633 110.902267,56.902351 
	C110.947220,56.945858 111.038872,57.031033 111.038879,57.031033 
	C111.027298,58.112041 111.015709,59.193047 111.006622,60.679726 
z"/>
<path fill="#3A1D0B" opacity="1.000000" stroke="none" 
	d="
M113.040970,54.032589 
	C113.040901,54.470463 113.040833,54.908333 113.023590,55.674301 
	C112.519516,56.269154 112.032616,56.535915 111.292297,56.916855 
	C111.038872,57.031033 110.947220,56.945858 110.967987,56.599304 
	C111.654892,55.498653 112.321037,54.744553 113.000320,54.000687 
	C113.013458,54.010918 113.040970,54.032589 113.040970,54.032589 
z"/>
<path fill="#7D553F" opacity="1.000000" stroke="none" 
	d="
M78.889618,80.514595 
	C79.905586,81.486465 80.921555,82.458336 81.816559,83.951393 
	C78.442596,84.535019 75.189606,84.597466 71.572823,84.530975 
	C66.378044,82.996666 62.397186,84.610085 58.881069,87.873779 
	C59.220463,85.903297 59.559860,83.932816 60.218018,81.471909 
	C60.761345,80.686127 60.985905,80.390762 61.210464,80.095398 
	C62.926357,79.223282 64.642258,78.351166 67.031204,77.380203 
	C69.797012,77.562759 71.889771,77.844147 74.261505,78.315338 
	C75.990196,79.174950 77.439903,79.844772 78.889618,80.514595 
z"/>
<path fill="#ECBBA6" opacity="1.000000" stroke="none" 
	d="
M73.982536,78.125542 
	C71.889771,77.844147 69.797012,77.562759 67.314560,77.228699 
	C67.950378,71.448967 68.975899,65.721901 70.020630,59.602753 
	C71.766228,59.215221 73.492599,59.219780 75.605667,59.731071 
	C75.004059,64.103844 73.750954,67.928520 73.137833,71.853165 
	C72.825691,73.851212 73.664177,76.028999 73.982536,78.125542 
z"/>
<path fill="#D4A28E" opacity="1.000000" stroke="none" 
	d="
M60.909126,80.063034 
	C60.985905,80.390762 60.761345,80.686127 60.308151,81.145653 
	C60.063297,81.091583 60.047077,80.873337 60.016663,80.327118 
	C60.204247,80.009659 60.406021,80.020157 60.909126,80.063034 
z"/>
<path fill="#E0B19D" opacity="1.000000" stroke="none" 
	d="
M59.080910,88.153137 
	C62.397186,84.610085 66.378044,82.996666 71.685410,84.862389 
	C73.108292,87.216881 74.054794,89.111038 74.656448,90.958191 
	C73.860405,90.989746 73.409225,91.068306 72.632645,91.113495 
	C71.876396,91.134476 71.445564,91.188820 70.758652,91.176857 
	C70.330055,91.147118 70.157539,91.183685 69.624634,91.192017 
	C67.918884,91.488243 66.573532,91.812691 65.228180,92.137131 
	C64.350334,91.848251 63.472485,91.559372 62.270927,91.133041 
	C61.058399,90.141228 60.169579,89.286858 59.080910,88.153137 
z"/>
<path fill="#4E2C10" opacity="1.000000" stroke="none" 
	d="
M66.207275,55.257568 
	C67.590408,53.961071 69.251610,52.958660 70.995605,51.657196 
	C73.489830,50.299583 75.901253,49.241035 78.805664,48.442833 
	C79.521378,50.082737 79.744110,51.462288 79.714653,53.036942 
	C78.408432,53.891155 77.354393,54.550262 76.300362,55.209373 
	C73.028687,55.323471 69.757011,55.437561 66.207275,55.257568 
z"/>
<path fill="#643D1E" opacity="1.000000" stroke="none" 
	d="
M79.966835,52.841843 
	C79.744110,51.462288 79.521378,50.082737 79.151436,48.383312 
	C80.435341,47.055313 81.866463,46.047184 83.627701,44.976437 
	C84.322334,46.118328 84.686852,47.322842 84.899780,49.158371 
	C83.154404,50.806873 81.560616,51.824356 79.966835,52.841843 
z"/>
<path fill="#F2C3B0" opacity="1.000000" stroke="none" 
	d="
M74.261505,78.315338 
	C73.664177,76.028999 72.825691,73.851212 73.137833,71.853165 
	C73.750954,67.928520 75.004059,64.103844 76.005997,59.896458 
	C76.191338,59.456360 76.363029,59.357616 77.131935,59.205799 
	C79.155876,59.524746 80.582611,59.896767 82.004471,60.624382 
	C81.730217,61.738857 81.586174,62.575230 81.172295,63.244808 
	C76.342270,71.058891 76.946739,73.168686 84.729195,77.566162 
	C86.441254,78.533546 87.590240,80.497437 88.998520,82.002441 
	C86.933670,81.160194 84.919479,80.132111 82.783730,79.549934 
	C81.623444,79.233650 80.256424,79.675728 78.936134,80.145172 
	C77.439903,79.844772 75.990196,79.174950 74.261505,78.315338 
z"/>
<path fill="#9A877B" opacity="1.000000" stroke="none" 
	d="
M79.714653,53.036942 
	C81.560616,51.824356 83.154404,50.806873 84.932770,49.537849 
	C87.205643,47.560970 89.293930,45.835629 91.672958,43.923431 
	C91.280838,45.845470 90.597961,47.954369 89.692902,50.692539 
	C87.599518,52.517513 85.728325,53.713211 83.645233,54.954468 
	C83.433327,55.000027 83.026276,55.149090 82.723946,55.107044 
	C81.932335,55.332005 81.443054,55.599010 80.614227,55.929802 
	C79.186890,56.340519 78.099098,56.687458 77.011307,57.034393 
	C76.747467,56.603779 76.483627,56.173164 76.260071,55.475964 
	C77.354393,54.550262 78.408432,53.891155 79.714653,53.036942 
z"/>
<path fill="#3A1D0B" opacity="1.000000" stroke="none" 
	d="
M83.026276,55.149094 
	C83.026276,55.149090 83.433327,55.000027 83.949593,55.160427 
	C85.986084,55.881435 87.506302,56.442043 88.820404,57.276985 
	C87.692947,58.536423 86.771599,59.521523 85.466904,60.444885 
	C84.058807,60.345028 83.034073,60.306908 82.009338,60.268791 
	C80.582611,59.896767 79.155876,59.524746 77.375969,59.036339 
	C77.024338,58.500931 77.025887,58.081898 77.019379,57.348633 
	C78.099098,56.687458 79.186890,56.340519 80.761932,56.177963 
	C81.841553,55.957924 82.433914,55.553509 83.026276,55.149094 
z"/>
<path fill="#4A2506" opacity="1.000000" stroke="none" 
	d="
M89.026527,57.002651 
	C87.506302,56.442043 85.986084,55.881435 84.161499,55.114868 
	C85.728325,53.713211 87.599518,52.517513 89.637375,51.031059 
	C93.035973,47.967857 96.267921,45.195412 99.769325,42.234821 
	C101.491753,42.599144 102.944710,43.151611 104.708908,43.856007 
	C102.251831,47.250072 99.483536,50.492210 96.026672,53.876633 
	C93.556503,55.005657 91.774895,55.992397 89.751686,56.987129 
	C89.510086,56.995117 89.026527,57.002651 89.026527,57.002651 
z"/>
<path fill="#3A1D0B" opacity="1.000000" stroke="none" 
	d="
M113.000877,52.993214 
	C113.175903,52.994431 113.350937,52.995644 113.789078,53.000977 
	C113.942101,53.329365 113.753860,53.599075 113.264221,53.923409 
	C113.040970,54.032589 113.013458,54.010918 113.003906,53.751431 
	C112.994354,53.491943 113.000877,52.993214 113.000877,52.993214 
z"/>
<path fill="#3A1D0B" opacity="1.000000" stroke="none" 
	d="
M89.993286,56.979134 
	C91.774895,55.992397 93.556503,55.005657 95.727692,54.024391 
	C97.789345,53.816483 99.613388,53.947784 101.092033,53.295765 
	C102.667213,52.601170 103.915619,51.165524 105.656548,50.033066 
	C105.355690,51.443939 104.704979,52.875175 103.666008,54.704971 
	C102.205963,57.108006 101.134178,59.112480 100.021194,61.300003 
	C99.979996,61.483055 99.959534,61.857685 99.516708,61.912884 
	C95.721268,61.590897 92.368637,61.213711 89.061951,60.534691 
	C89.403015,59.148281 89.698151,58.063709 89.993286,56.979134 
z"/>
<path fill="#59351C" opacity="1.000000" stroke="none" 
	d="
M100.062393,61.116955 
	C101.134178,59.112480 102.205963,57.108006 103.619980,55.046257 
	C106.065880,54.348877 108.169533,53.708771 110.843445,52.934658 
	C111.602852,52.532299 111.792023,52.263943 111.981186,51.995590 
	C111.981186,51.995590 111.995949,51.994625 111.991760,51.983467 
	C112.308311,52.087158 112.571106,52.280666 112.888428,52.773022 
	C113.000877,52.993214 112.994354,53.491943 112.990768,53.741196 
	C112.321037,54.744553 111.654892,55.498653 110.923027,56.555798 
	C107.923920,58.035633 104.990540,59.212421 101.682922,60.723328 
	C100.893257,61.077278 100.477829,61.097118 100.062393,61.116955 
z"/>
<path fill="#4E2C10" opacity="1.000000" stroke="none" 
	d="
M111.752899,52.095703 
	C111.792023,52.263943 111.602852,52.532299 111.181839,52.898827 
	C111.056664,52.669048 111.248207,52.401985 111.752899,52.095703 
z"/>
<path fill="#63534B" opacity="1.000000" stroke="none" 
	d="
M87.013939,100.092911 
	C86.385590,101.437782 85.777153,102.792404 85.124481,104.125366 
	C83.989578,106.443176 82.827362,108.747620 81.286713,111.036850 
	C81.210342,109.896004 81.523857,108.775970 81.848022,106.986961 
	C81.918953,105.885338 81.979218,105.452698 82.312981,104.884369 
	C82.275047,103.856476 81.963615,102.964264 81.734398,101.761200 
	C81.565437,100.892082 81.314262,100.333817 81.046272,99.464836 
	C80.679497,98.413597 80.329529,97.673088 79.845818,96.608009 
	C79.455269,94.919838 79.198471,93.556236 79.303711,92.136734 
	C82.451561,93.680542 85.237381,95.280243 88.471077,96.944870 
	C91.661293,97.092842 94.403641,97.175880 97.517410,97.235939 
	C100.362434,94.590530 103.295265,93.312263 106.940887,94.120270 
	C106.940887,94.120270 107.036560,94.522583 106.854034,95.011780 
	C99.910965,96.693031 98.635559,98.654022 101.028091,104.370468 
	C99.273804,110.948441 99.802826,111.951881 105.624886,114.236229 
	C106.149315,114.442001 106.401382,115.341942 106.404892,115.898926 
	C105.026291,115.944595 104.022728,116.010834 102.689377,116.018280 
	C100.937927,114.631287 99.516273,113.303093 98.057793,111.648483 
	C97.914131,110.897820 97.807297,110.473572 97.749908,109.652176 
	C97.613708,106.326859 97.428055,103.398689 97.230301,100.279610 
	C96.784218,100.217827 96.140312,100.054779 95.495743,100.052109 
	C92.668579,100.040382 89.841225,100.075058 87.013939,100.092911 
z"/>
<path fill="#CB9C88" opacity="1.000000" stroke="none" 
	d="
M107.013885,93.747360 
	C103.295265,93.312263 100.362434,94.590530 97.469299,96.785461 
	C95.725899,90.508522 99.114044,87.793907 103.924004,86.025208 
	C105.344063,86.032753 106.764122,86.040291 108.605667,86.112885 
	C108.380402,88.576775 107.733643,90.975616 107.013885,93.747360 
z"/>
<path fill="#47413F" opacity="1.000000" stroke="none" 
	d="
M123.018051,105.609970 
	C122.654526,106.038292 122.356323,106.179062 121.801079,106.635513 
	C121.506592,106.871857 121.061241,106.735558 120.926048,106.423981 
	C119.861389,103.274521 118.629494,100.779213 114.815399,100.709854 
	C113.105316,100.060478 111.579681,99.701126 109.701080,99.307442 
	C108.189339,99.516319 107.030579,99.759521 105.951553,99.659424 
	C106.755272,97.944832 107.479248,96.573547 108.203232,95.202271 
	C108.203232,95.202271 108.470039,95.195831 108.601929,95.176773 
	C109.663437,95.788658 110.517899,96.609398 111.537491,97.013191 
	C114.082977,98.021317 116.703491,98.840012 119.621956,99.875092 
	C120.763405,100.909309 121.576782,101.803162 122.637100,102.869797 
	C122.938004,103.776085 122.991966,104.509583 123.018051,105.609970 
z"/>
<path fill="#A27F73" opacity="1.000000" stroke="none" 
	d="
M107.953720,95.107986 
	C107.479248,96.573547 106.755272,97.944832 105.713966,99.753479 
	C104.961113,100.456451 104.525597,100.722076 103.778214,101.063187 
	C102.692856,102.091408 101.919380,103.044136 101.145897,103.996857 
	C98.635559,98.654022 99.910965,96.693031 106.926224,95.205536 
	C107.355370,94.944626 107.529793,94.979172 107.953720,95.107986 
z"/>
<path fill="#E5CCC2" opacity="1.000000" stroke="none" 
	d="
M101.028091,104.370468 
	C101.919380,103.044136 102.692856,102.091408 103.821228,101.485695 
	C103.969482,108.810432 105.237000,110.333054 111.268745,109.952461 
	C112.858368,109.852158 114.412079,109.182793 116.337471,108.809013 
	C118.148849,108.140709 119.605049,107.438133 121.061241,106.735558 
	C121.061241,106.735558 121.506592,106.871857 121.739433,106.877075 
	C123.229767,109.413971 124.487267,111.945641 125.623863,115.112808 
	C121.043640,115.851654 116.584320,115.955009 111.681458,116.044151 
	C109.751938,115.993126 108.265938,115.956314 106.779938,115.919495 
	C106.401382,115.341942 106.149315,114.442001 105.624886,114.236229 
	C99.802826,111.951881 99.273804,110.948441 101.028091,104.370468 
z"/>
<path fill="#524642" opacity="1.000000" stroke="none" 
	d="
M112.124992,116.058365 
	C116.584320,115.955009 121.043640,115.851654 125.773140,115.422585 
	C127.101105,114.947479 128.158905,114.798088 129.595062,114.789207 
	C129.961182,115.242157 129.926010,115.551979 129.844635,116.082123 
	C129.821335,116.305061 129.480713,116.577789 128.867615,116.715805 
	C125.802765,117.290489 123.350998,117.727165 120.496643,118.130692 
	C117.437698,117.417824 114.781349,116.738098 112.124992,116.058365 
z"/>
<path fill="#A06354" opacity="1.000000" stroke="none" 
	d="
M81.352463,152.021973 
	C79.558289,150.751358 78.079048,149.503311 76.297493,148.128235 
	C75.945602,147.575546 75.896027,147.149857 76.227417,146.393494 
	C83.790108,151.878464 91.426582,153.987976 100.001984,148.996628 
	C100.060951,149.067169 100.178123,149.208862 100.178131,149.208862 
	C99.567398,149.970657 98.956665,150.732452 98.166428,151.738724 
	C97.433884,152.156723 96.880836,152.330261 96.154274,152.743622 
	C92.256195,152.996674 88.531647,153.009888 84.398148,153.017517 
	C83.215271,152.689453 82.441338,152.366989 81.352463,152.021973 
z"/>
<path fill="#CB9C88" opacity="1.000000" stroke="none" 
	d="
M123.950150,133.596710 
	C118.476074,134.948853 115.558006,138.789200 113.156494,143.695480 
	C113.008270,144.011276 112.534081,144.042572 112.029800,144.032410 
	C111.347496,144.013062 111.169456,144.003876 111.040436,143.611526 
	C111.046509,140.504669 111.003555,137.780991 111.300507,134.995575 
	C115.041779,134.062927 113.199905,131.911240 113.205299,130.087006 
	C121.332108,132.387299 121.864700,132.099991 123.023193,124.970940 
	C124.502472,125.406425 127.413200,123.900475 125.916702,127.828400 
	C124.878006,129.071548 124.444771,130.037064 124.011536,131.002579 
	C123.998863,131.744080 123.986191,132.485580 123.950150,133.596710 
z"/>
<path fill="#E7B7A4" opacity="1.000000" stroke="none" 
	d="
M110.960602,135.057297 
	C111.003555,137.780991 111.046509,140.504669 110.774612,143.806488 
	C110.259407,145.224747 110.059029,146.064896 109.858658,146.905060 
	C109.452156,146.931015 109.045654,146.956985 108.339714,147.042770 
	C107.318382,147.059311 106.596481,147.016037 105.477203,146.715256 
	C105.079819,146.457733 105.058746,146.001740 105.332550,145.809357 
	C106.387062,143.070206 107.167770,140.523453 108.026344,137.672302 
	C108.488060,136.622086 108.871918,135.876266 109.541412,135.137390 
	C110.204903,135.115326 110.582756,135.086304 110.960602,135.057297 
z"/>
<path fill="#BE8F7B" opacity="1.000000" stroke="none" 
	d="
M110.216988,146.897400 
	C110.059029,146.064896 110.259407,145.224747 110.725601,144.189636 
	C111.169456,144.003876 111.347496,144.013062 111.792603,144.046326 
	C111.564888,145.010193 111.070099,145.949982 110.216988,146.897400 
z"/>
<path fill="#A06354" opacity="1.000000" stroke="none" 
	d="
M105.058746,146.001740 
	C105.058746,146.001740 105.079819,146.457733 105.117615,146.682709 
	C103.725380,147.640274 102.295341,148.372879 100.521713,149.157166 
	C100.178123,149.208862 100.060951,149.067169 100.168793,148.696960 
	C101.870674,147.551743 103.464706,146.776733 105.058746,146.001740 
z"/>
<path fill="#BC7B70" opacity="1.000000" stroke="none" 
	d="
M105.332550,145.809341 
	C103.464706,146.776733 101.870674,147.551743 100.109833,148.626419 
	C91.426582,153.987976 83.790108,151.878464 76.242027,146.072281 
	C75.875656,146.081757 75.912247,146.042160 75.915833,145.707336 
	C75.232841,144.856110 74.546265,144.339722 73.859680,143.823349 
	C72.953041,141.366989 72.046402,138.910614 71.499832,136.238098 
	C73.546600,137.759827 75.233292,139.497711 77.019577,141.445526 
	C77.346138,141.872086 77.603363,142.043259 78.072586,142.456940 
	C80.428497,143.551132 82.548012,144.630493 84.793594,145.079788 
	C86.696320,145.460495 89.282593,144.323868 90.625206,145.239212 
	C94.257271,147.715408 96.980408,146.140884 100.223083,144.152924 
	C103.010300,141.992477 105.479393,139.984589 107.948479,137.976700 
	C107.167770,140.523453 106.387062,143.070206 105.332550,145.809341 
z"/>
<path fill="#140909" opacity="1.000000" stroke="none" 
	d="
M108.026344,137.672302 
	C105.479393,139.984589 103.010300,141.992477 100.303986,144.015900 
	C100.066750,144.031448 100.037804,143.716415 99.901184,143.555847 
	C99.557770,143.191757 99.312599,143.059219 98.730896,142.710007 
	C92.964928,141.915237 87.497108,141.408096 82.019363,140.561340 
	C79.415291,136.053558 78.394478,139.783279 76.919983,141.235596 
	C75.233292,139.497711 73.546600,137.759827 71.590233,135.830048 
	C70.957336,134.640244 70.594116,133.642349 70.427948,132.221558 
	C73.722832,132.873413 76.820671,133.948151 80.099472,135.375946 
	C86.834862,136.102768 93.389305,136.476547 100.302368,136.902374 
	C102.497627,135.784821 104.334259,134.615234 106.386810,133.404999 
	C106.602722,133.364349 107.016556,133.220001 107.134354,133.351868 
	C107.252151,133.483719 107.604317,133.451599 107.792427,133.613892 
	C108.276199,133.928848 108.585373,134.045822 108.955841,134.391479 
	C109.087677,134.814087 109.171722,134.972275 109.255768,135.130447 
	C108.871918,135.876266 108.488060,136.622086 108.026344,137.672302 
z"/>
<path fill="#7C544A" opacity="1.000000" stroke="none" 
	d="
M106.170891,133.445633 
	C104.334259,134.615234 102.497627,135.784821 100.048325,136.626801 
	C92.929947,135.873749 86.424225,135.448303 79.918510,135.022873 
	C76.820671,133.948151 73.722832,132.873413 70.353691,131.910538 
	C69.623032,131.936234 69.163689,131.850052 68.355515,131.723724 
	C67.445076,128.611832 67.711433,128.504501 72.976227,130.140121 
	C75.113548,130.537750 76.559044,130.755203 78.004539,130.972656 
	C78.423416,131.032074 78.842293,131.091476 79.696770,131.544983 
	C83.597641,132.627075 87.052460,133.787125 90.531258,133.864182 
	C93.716606,133.934753 96.927872,132.835297 100.532608,132.216782 
	C102.293747,132.176041 103.649979,132.169907 105.176430,132.397125 
	C105.621391,132.902191 105.896141,133.173904 106.170891,133.445633 
z"/>
<path fill="#A06354" opacity="1.000000" stroke="none" 
	d="
M73.905975,144.179993 
	C74.546265,144.339722 75.232841,144.856110 75.940842,145.716827 
	C75.292274,145.552963 74.622269,145.044785 73.905975,144.179993 
z"/>
<path fill="#E3B39C" opacity="1.000000" stroke="none" 
	d="
M113.029953,122.962280 
	C113.802109,123.299820 114.574265,123.637360 115.614105,124.353485 
	C113.583946,125.825874 111.286087,126.919685 108.573837,128.008606 
	C106.777580,127.990891 105.395714,127.978058 103.972961,127.616508 
	C102.758179,125.402092 101.584282,123.536392 100.175163,121.296860 
	C101.429794,121.161041 102.221451,121.075340 103.400696,121.040199 
	C106.868851,121.714600 109.949402,122.338440 113.029953,122.962280 
z"/>
<path fill="#D8A792" opacity="1.000000" stroke="none" 
	d="
M108.988235,128.013489 
	C111.286087,126.919685 113.583946,125.825874 115.930557,124.388641 
	C118.084625,124.253700 120.189934,124.462166 122.659218,124.820786 
	C121.864700,132.099991 121.332108,132.387299 112.911621,129.942566 
	C111.170540,129.611664 110.111168,129.396225 109.032455,128.889145 
	C109.004829,128.402847 108.996529,128.208176 108.988235,128.013489 
z"/>
<path fill="#CC9B87" opacity="1.000000" stroke="none" 
	d="
M113.017723,122.572601 
	C109.949402,122.338440 106.868851,121.714600 103.248413,120.749420 
	C101.476730,120.270828 100.244949,120.133568 98.789696,119.888519 
	C98.287346,119.579803 98.097427,119.315056 97.997841,118.595917 
	C97.662201,116.467278 97.325188,114.729210 96.987587,112.742004 
	C96.986992,112.492851 96.972420,111.994766 97.252991,111.991066 
	C97.720589,111.983208 97.907600,111.979057 98.094620,111.974899 
	C99.516273,113.303093 100.937927,114.631287 102.734268,116.388931 
	C106.415688,117.564888 109.722435,118.311386 113.029175,119.057884 
	C113.021278,120.099564 113.013382,121.141243 113.017723,122.572601 
z"/>
<path fill="#F2C3B0" opacity="1.000000" stroke="none" 
	d="
M113.450409,119.041000 
	C109.722435,118.311386 106.415688,117.564888 103.064056,116.447731 
	C104.022728,116.010834 105.026291,115.944595 106.404892,115.898926 
	C108.265938,115.956314 109.751938,115.993126 111.681458,116.044159 
	C114.781349,116.738098 117.437698,117.417824 120.329391,118.364273 
	C120.020599,118.819237 119.476471,119.007462 118.932343,119.195679 
	C117.245445,119.138489 115.558540,119.081306 113.450409,119.041000 
z"/>
<path fill="#CC9B87" opacity="1.000000" stroke="none" 
	d="
M119.052322,119.558434 
	C119.476471,119.007462 120.020599,118.819237 120.731979,118.397423 
	C123.350998,117.727165 125.802765,117.290489 128.695282,116.849571 
	C126.856110,121.646095 124.883293,122.255112 119.052322,119.558434 
z"/>
<path fill="#BE8F7B" opacity="1.000000" stroke="none" 
	d="
M124.299301,130.860657 
	C124.444771,130.037064 124.878006,129.071548 125.655685,128.053619 
	C125.529106,128.907059 125.058090,129.812912 124.299301,130.860657 
z"/>
<path fill="#292B29" opacity="1.000000" stroke="none" 
	d="
M71.944427,105.123459 
	C70.859749,104.762154 69.775078,104.400848 68.037125,103.993988 
	C66.210037,102.976280 63.589130,102.590767 65.903122,99.837326 
	C65.576637,98.261612 65.218369,97.066109 64.860100,95.870605 
	C64.860100,95.870605 65.004845,95.985664 65.343140,95.933945 
	C68.158974,95.545486 70.636513,95.208755 73.427872,94.892471 
	C74.162140,94.888962 74.582581,94.865005 75.003822,95.256477 
	C75.007225,95.948845 75.009834,96.225792 74.610718,96.449486 
	C72.863976,96.305725 71.518951,96.215210 69.846474,96.118248 
	C69.189377,96.540535 68.859734,96.969276 68.530090,97.398018 
	C69.135979,97.514404 69.741875,97.630783 70.732681,97.724480 
	C72.449585,98.692970 74.966843,99.837570 74.862610,100.642845 
	C74.656448,102.235611 73.000809,103.640755 71.944427,105.123459 
z"/>
<path fill="#71828B" opacity="1.000000" stroke="none" 
	d="
M70.173927,96.124695 
	C71.518951,96.215210 72.863976,96.305725 74.911606,96.624092 
	C77.069328,96.878815 78.524452,96.905693 79.979568,96.932571 
	C80.329529,97.673088 80.679497,98.413597 80.645691,99.436180 
	C78.781204,102.087898 77.300491,104.457558 75.819786,106.827217 
	C75.819786,106.827217 75.467720,106.880898 75.172607,106.736099 
	C74.477173,106.701958 74.076851,106.812607 73.676521,106.923256 
	C73.140831,106.500870 72.605133,106.078476 72.006935,105.389771 
	C73.000809,103.640755 74.656448,102.235611 74.862610,100.642845 
	C74.966843,99.837570 72.449585,98.692970 70.643555,97.463135 
	C70.170982,96.857872 70.172455,96.491280 70.173927,96.124695 
z"/>
<path fill="#BFBBB8" opacity="1.000000" stroke="none" 
	d="
M65.871338,100.217529 
	C63.589130,102.590767 66.210037,102.976280 67.692383,104.085587 
	C65.914246,104.470474 63.827579,104.718224 61.185913,104.713852 
	C60.058239,103.947960 59.485561,103.434196 58.912884,102.920441 
	C59.277550,102.143631 59.642220,101.366814 60.083977,100.269958 
	C60.161072,99.949928 60.209251,99.813240 60.416672,99.648178 
	C61.100792,98.982773 61.577488,98.482437 62.054184,97.982101 
	C62.054184,97.982101 61.990086,97.977989 62.281307,98.145370 
	C63.672131,98.947685 64.771736,99.582611 65.871338,100.217529 
z"/>
<path fill="#D6D5D6" opacity="1.000000" stroke="none" 
	d="
M76.044022,107.107841 
	C77.300491,104.457558 78.781204,102.087898 80.662506,99.746902 
	C81.314262,100.333817 81.565437,100.892082 81.541229,101.981911 
	C81.523720,103.348999 81.781601,104.184532 82.039482,105.020058 
	C81.979218,105.452698 81.918953,105.885338 81.774506,106.634216 
	C79.882980,107.096451 78.075623,107.242462 76.044022,107.107841 
z"/>
<path fill="#D1AD9F" opacity="1.000000" stroke="none" 
	d="
M58.558739,102.964951 
	C59.485561,103.434196 60.058239,103.947960 60.799927,104.696915 
	C59.223255,106.288765 57.477573,107.645432 55.346107,108.998947 
	C56.041752,107.000351 57.123177,105.004906 58.558739,102.964951 
z"/>
<path fill="#E6BDAE" opacity="1.000000" stroke="none" 
	d="
M79.011131,113.322174 
	C79.793030,113.082809 80.568054,113.186256 82.158394,113.398537 
	C80.870613,114.197723 80.246727,114.584900 79.311035,115.004715 
	C79.000916,114.579903 79.002586,114.122452 79.011131,113.322174 
z"/>
<path fill="#D6D5D6" opacity="1.000000" stroke="none" 
	d="
M74.039383,106.946030 
	C74.076851,106.812607 74.477173,106.701958 75.003281,106.791214 
	C74.886795,106.983681 74.644524,106.976234 74.039383,106.946030 
z"/>
<path fill="#DCAC97" opacity="1.000000" stroke="none" 
	d="
M99.013153,119.996307 
	C100.244949,120.133568 101.476730,120.270828 102.860809,120.698868 
	C102.221451,121.075340 101.429794,121.161041 100.175163,121.296860 
	C101.584282,123.536392 102.758179,125.402092 103.632446,127.633240 
	C103.008041,128.705063 102.222733,129.747986 102.446182,130.053757 
	C103.078285,130.918777 104.123657,131.481781 105.006218,132.163773 
	C103.649979,132.169907 102.293747,132.176041 100.181526,132.118149 
	C98.945839,131.987625 98.466141,131.921127 97.986435,131.854630 
	C97.795982,131.320389 97.605537,130.786163 97.189468,129.704590 
	C97.646950,126.103607 98.330055,123.049957 99.013153,119.996307 
z"/>
<path fill="#92634F" opacity="1.000000" stroke="none" 
	d="
M92.756607,129.754684 
	C87.999992,129.796204 84.640442,127.405952 82.349670,123.281998 
	C83.393707,122.991432 84.169708,123.040749 85.136215,123.372131 
	C88.330002,126.378044 91.634102,125.499161 95.157791,124.685364 
	C94.494759,126.526855 93.625687,128.140778 92.756607,129.754684 
z"/>
<path fill="#AA6D5D" opacity="1.000000" stroke="none" 
	d="
M97.527237,131.902405 
	C98.466141,131.921127 98.945839,131.987625 99.776627,132.152756 
	C96.927872,132.835297 93.716606,133.934753 90.531258,133.864182 
	C87.052460,133.787125 83.597641,132.627075 80.011803,131.584808 
	C85.616837,131.470413 91.342430,131.710297 97.527237,131.902405 
z"/>
<path fill="#D5A794" opacity="1.000000" stroke="none" 
	d="
M78.057549,130.635345 
	C76.559044,130.755203 75.113548,130.537750 73.342285,130.139130 
	C73.011024,128.900909 73.005531,127.843834 73.001518,126.389526 
	C75.563217,126.050201 78.123428,126.108116 80.683647,126.166031 
	C80.702187,126.711334 80.720726,127.256638 80.739265,127.801941 
	C79.863029,128.633972 78.986794,129.466019 78.057549,130.635345 
z"/>
<path fill="#D4A28E" opacity="1.000000" stroke="none" 
	d="
M84.945717,123.090065 
	C84.169708,123.040749 83.393707,122.991432 82.226372,122.955505 
	C81.535591,121.529778 81.236130,120.090660 80.971779,118.291931 
	C82.096375,116.966042 83.185860,115.999763 84.740227,115.289902 
	C85.464973,116.360489 85.724831,117.174660 85.708542,118.248039 
	C85.270164,120.034851 85.107941,121.562462 84.945717,123.090065 
z"/>
<path fill="#C39481" opacity="1.000000" stroke="none" 
	d="
M93.171516,129.835739 
	C93.625687,128.140778 94.494759,126.526855 95.250015,124.276588 
	C95.394051,122.088722 95.651909,120.537216 96.258041,118.988281 
	C97.069695,118.989403 97.533089,118.987946 97.996475,118.986488 
	C98.097427,119.315056 98.287346,119.579803 98.789688,119.888519 
	C98.330055,123.049957 97.646950,126.103607 96.941513,129.550964 
	C95.808258,129.935379 94.697342,129.926086 93.171516,129.835739 
z"/>
<path fill="#ECBBA6" opacity="1.000000" stroke="none" 
	d="
M95.909775,118.985703 
	C95.651909,120.537216 95.394051,122.088722 95.043976,124.049011 
	C91.634102,125.499161 88.330002,126.378044 85.136215,123.372131 
	C85.107941,121.562462 85.270164,120.034851 86.069710,118.211014 
	C87.398811,116.997940 88.090591,116.081093 88.782379,115.164246 
	C87.826202,114.772614 86.870033,114.380974 85.913864,113.989334 
	C86.066910,113.435020 86.219955,112.880714 86.966934,112.181992 
	C88.709473,112.361847 89.858086,112.686104 91.002502,113.360664 
	C90.373695,116.275192 90.386917,118.394424 94.244675,118.109787 
	C94.966370,118.471024 95.438072,118.728363 95.909775,118.985703 
z"/>
<path fill="#CC9B87" opacity="1.000000" stroke="none" 
	d="
M87.053177,100.450378 
	C89.841225,100.075058 92.668579,100.040382 95.495743,100.052109 
	C96.140312,100.054779 96.784218,100.217827 97.230301,100.279610 
	C97.428055,103.398689 97.613708,106.326859 97.475258,109.635582 
	C96.781990,109.999146 96.412834,109.982155 95.796013,109.964722 
	C95.548355,109.964264 95.054291,109.979111 95.046677,109.619003 
	C95.894806,106.094284 94.770058,104.644089 91.428093,104.985847 
	C90.297119,105.101501 89.145050,105.010933 88.002625,105.014603 
	C87.699219,103.612350 87.395821,102.210098 87.053177,100.450378 
z"/>
<path fill="#F8CAB7" opacity="1.000000" stroke="none" 
	d="
M87.736755,105.297913 
	C89.145050,105.010933 90.297119,105.101501 91.428093,104.985847 
	C94.770058,104.644089 95.894806,106.094284 94.781616,109.781265 
	C94.015419,111.200180 93.506676,112.096725 92.666039,112.996185 
	C91.891663,113.002853 91.449181,113.006615 91.006699,113.010361 
	C89.858086,112.686104 88.709473,112.361847 87.194901,111.999817 
	C87.042923,109.835106 87.256905,107.708168 87.736755,105.297913 
z"/>
<path fill="#E3B39C" opacity="1.000000" stroke="none" 
	d="
M85.702087,114.095787 
	C86.870033,114.380974 87.826202,114.772614 88.782379,115.164246 
	C88.090591,116.081093 87.398811,116.997940 86.345863,117.951813 
	C85.724831,117.174660 85.464973,116.360489 85.062576,115.249969 
	C85.046860,114.655106 85.236946,114.404640 85.702087,114.095787 
z"/>
<path fill="#443B34" opacity="1.000000" stroke="none" 
	d="
M73.114052,94.872017 
	C70.636513,95.208755 68.158974,95.545486 65.267502,95.882233 
	C64.945618,94.882996 65.037666,93.883759 65.178955,92.510818 
	C66.573532,91.812691 67.918884,91.488243 69.726425,91.328232 
	C70.463982,91.409508 70.739357,91.326340 71.014725,91.243172 
	C71.445564,91.188820 71.876396,91.134476 72.637436,91.487007 
	C73.016449,92.886597 73.065254,93.879303 73.114052,94.872017 
z"/>
<path fill="#443B34" opacity="1.000000" stroke="none" 
	d="
M65.903122,99.837326 
	C64.771736,99.582611 63.672131,98.947685 62.276611,98.177147 
	C62.719559,97.344200 63.458416,96.646858 64.528687,95.910065 
	C65.218369,97.066109 65.576637,98.261612 65.903122,99.837326 
z"/>
<path fill="#443B34" opacity="1.000000" stroke="none" 
	d="
M61.757500,98.000694 
	C61.577488,98.482437 61.100792,98.982773 60.387932,99.581650 
	C60.195927,99.347916 60.240082,99.015633 60.285866,98.432182 
	C60.678600,98.127106 61.069706,98.073196 61.757500,98.000694 
z"/>
<path fill="#F8CAB7" opacity="1.000000" stroke="none" 
	d="
M82.004471,60.624382 
	C83.034073,60.306908 84.058807,60.345028 85.615616,60.618042 
	C86.435295,60.953949 86.720741,61.060764 87.002777,61.565132 
	C86.033875,63.629292 85.441185,65.796860 84.021309,66.872162 
	C80.963257,69.188087 81.643295,71.529076 83.657639,73.573425 
	C90.341324,80.356651 99.083672,78.991257 103.224472,71.470833 
	C102.009506,68.245087 101.015251,65.605316 100.326279,62.945312 
	C101.099159,62.585423 101.566757,62.245758 102.034355,61.906090 
	C102.473915,61.966209 102.913467,62.026325 103.686348,62.069347 
	C104.781448,62.383694 105.543236,62.715130 106.649231,63.449253 
	C107.437782,65.221901 108.340401,66.630585 108.228615,67.953560 
	C108.012924,70.506348 108.065605,74.213577 106.509941,75.301544 
	C102.429245,78.155418 97.543762,79.858559 92.978973,82.020256 
	C91.917542,82.015800 90.856117,82.011345 89.396606,82.004669 
	C87.590240,80.497437 86.441254,78.533546 84.729195,77.566162 
	C76.946739,73.168686 76.342270,71.058891 81.172295,63.244808 
	C81.586174,62.575230 81.730217,61.738857 82.004471,60.624382 
z"/>
<path fill="#E0B19D" opacity="1.000000" stroke="none" 
	d="
M103.910080,85.689507 
	C99.114044,87.793907 95.725899,90.508522 97.097870,96.808441 
	C94.403641,97.175880 91.661293,97.092842 88.446831,96.551147 
	C87.298508,91.664398 86.644562,87.227287 83.061089,83.978432 
	C85.114311,85.122688 87.639626,85.848282 89.111519,87.508057 
	C91.392654,90.080383 92.914810,90.414581 95.647308,88.079636 
	C97.786736,86.251480 100.701164,85.330261 103.660126,84.012772 
	C103.998039,84.464233 103.947090,84.909019 103.910080,85.689507 
z"/>
<path fill="#CD9F8B" opacity="1.000000" stroke="none" 
	d="
M82.864304,83.962051 
	C86.644562,87.227287 87.298508,91.664398 87.998955,96.486206 
	C85.237381,95.280243 82.451561,93.680542 79.083511,92.104630 
	C78.501282,92.128418 78.066246,92.222610 77.719986,92.152794 
	C76.582916,91.723717 75.792114,91.364456 75.001305,91.005196 
	C74.054794,89.111038 73.108292,87.216881 72.049194,84.991318 
	C75.189606,84.597466 78.442596,84.535019 81.984131,84.205750 
	C82.272667,83.938919 82.667526,83.945671 82.864304,83.962051 
z"/>
<path fill="#F2C3B0" opacity="1.000000" stroke="none" 
	d="
M93.049133,82.373398 
	C97.543762,79.858559 102.429245,78.155418 106.509941,75.301544 
	C108.065605,74.213577 108.012924,70.506348 108.228615,67.953560 
	C108.340401,66.630585 107.437782,65.221901 106.983353,63.458561 
	C111.693794,62.098145 112.385887,66.307388 113.650375,68.908241 
	C115.399139,72.505173 112.237740,74.953941 109.748077,76.554688 
	C105.406998,79.345833 100.657257,81.522644 95.974731,83.736885 
	C95.327003,84.043175 94.085762,83.094322 93.049133,82.373398 
z"/>
<path fill="#E7B7A4" opacity="1.000000" stroke="none" 
	d="
M102.026886,61.708241 
	C101.566757,62.245758 101.099159,62.585423 100.307114,62.668755 
	C99.974953,62.227509 99.967247,62.042595 99.959534,61.857685 
	C99.959534,61.857685 99.979996,61.483055 100.021194,61.300003 
	C100.477829,61.097118 100.893257,61.077278 101.619110,61.091091 
	C101.929535,61.124741 102.019417,61.510391 102.026886,61.708241 
z"/>
<path fill="#63534B" opacity="1.000000" stroke="none" 
	d="
M74.656448,90.958191 
	C75.792114,91.364456 76.582916,91.723717 77.710083,92.446236 
	C77.031975,93.486679 76.017502,94.163864 75.003029,94.841049 
	C74.582581,94.865005 74.162140,94.888962 73.427872,94.892471 
	C73.065254,93.879303 73.016449,92.886597 72.962845,91.520370 
	C73.409225,91.068306 73.860405,90.989746 74.656448,90.958191 
z"/>
<path fill="#63534B" opacity="1.000000" stroke="none" 
	d="
M70.758652,91.176857 
	C70.739357,91.326340 70.463982,91.409508 70.086823,91.356461 
	C70.157539,91.183685 70.330055,91.147118 70.758652,91.176857 
z"/>
<path fill="#4C2C19" opacity="1.000000" stroke="none" 
	d="
M82.723946,55.107048 
	C82.433914,55.553509 81.841553,55.957924 81.101479,56.114178 
	C81.443054,55.599010 81.932335,55.332005 82.723946,55.107048 
z"/>
<path fill="#4C2C19" opacity="1.000000" stroke="none" 
	d="
M87.004013,61.173386 
	C86.720741,61.060764 86.435295,60.953949 85.998970,60.679779 
	C86.771599,59.521523 87.692947,58.536423 88.820404,57.276985 
	C89.026527,57.002651 89.510086,56.995117 89.751686,56.987125 
	C89.698151,58.063709 89.403015,59.148281 88.729698,60.611099 
	C87.902351,61.050686 87.453178,61.112038 87.004013,61.173386 
z"/>
<path fill="#FBCEBB" opacity="1.000000" stroke="none" 
	d="
M87.002777,61.565132 
	C87.453178,61.112038 87.902351,61.050686 88.683762,60.912933 
	C92.368637,61.213711 95.721268,61.590897 99.516708,61.912884 
	C99.967247,62.042595 99.974953,62.227509 100.001831,62.688980 
	C101.015251,65.605316 102.009506,68.245087 103.224472,71.470833 
	C99.083672,78.991257 90.341324,80.356651 83.657639,73.573425 
	C81.643295,71.529076 80.963257,69.188087 84.021309,66.872162 
	C85.441185,65.796860 86.033875,63.629292 87.002777,61.565132 
z"/>
<path fill="#443B34" opacity="1.000000" stroke="none" 
	d="
M75.003822,95.256485 
	C76.017502,94.163864 77.031975,93.486679 78.056343,92.516052 
	C78.066246,92.222610 78.501282,92.128418 78.721481,92.160522 
	C79.198471,93.556236 79.455269,94.919838 79.845818,96.608009 
	C78.524452,96.905693 77.069328,96.878815 75.313324,96.677338 
	C75.009834,96.225792 75.007225,95.948845 75.003822,95.256485 
z"/>
<path fill="#DEC2B7" opacity="1.000000" stroke="none" 
	d="
M82.312981,104.884369 
	C81.781601,104.184532 81.523720,103.348999 81.459015,102.292770 
	C81.963615,102.964264 82.275047,103.856476 82.312981,104.884369 
z"/>
<path fill="#DCAC97" opacity="1.000000" stroke="none" 
	d="
M96.043671,109.965172 
	C96.412834,109.982155 96.781990,109.999146 97.425812,110.032730 
	C97.807297,110.473572 97.914131,110.897820 98.057793,111.648483 
	C97.907600,111.979057 97.720589,111.983208 97.010963,111.819420 
	C96.340126,111.089371 96.191895,110.527275 96.043671,109.965172 
z"/>
<path fill="#5B6971" opacity="1.000000" stroke="none" 
	d="
M115.982285,108.774750 
	C114.412079,109.182793 112.858368,109.852158 111.268745,109.952461 
	C105.237000,110.333054 103.969482,108.810432 104.133102,101.410202 
	C104.525597,100.722076 104.961113,100.456451 105.634224,100.096779 
	C107.030579,99.759521 108.189339,99.516319 109.690125,99.591400 
	C110.299004,100.597336 110.565865,101.284981 110.837326,102.344498 
	C109.854362,103.615135 108.866798,104.513908 107.879234,105.412674 
	C107.944046,105.884819 108.008850,106.356972 108.073662,106.829117 
	C110.682648,106.829117 113.291634,106.829117 115.923233,107.153152 
	C115.957985,107.909714 115.970139,108.342232 115.982285,108.774750 
z"/>
<path fill="#5E737B" opacity="1.000000" stroke="none" 
	d="
M116.337471,108.809021 
	C115.970139,108.342232 115.957985,107.909714 115.980164,106.780411 
	C115.663986,104.405067 115.313492,102.726501 114.972229,101.035942 
	C114.981468,101.023941 114.999840,100.999878 114.999840,100.999878 
	C118.629494,100.779213 119.861389,103.274521 120.926048,106.423981 
	C119.605049,107.438133 118.148849,108.140709 116.337471,108.809021 
z"/>
<path fill="#5E737B" opacity="1.000000" stroke="none" 
	d="
M110.832726,101.972633 
	C110.565865,101.284981 110.299004,100.597336 110.043091,99.625725 
	C111.579681,99.701126 113.105316,100.060478 114.815399,100.709854 
	C114.999840,100.999878 114.981468,101.023941 114.648743,101.013283 
	C113.154922,101.325966 111.993820,101.649300 110.832726,101.972633 
z"/>
<path fill="#AA6D5D" opacity="1.000000" stroke="none" 
	d="
M109.051788,129.180771 
	C110.111168,129.396225 111.170540,129.611664 112.523598,129.971558 
	C113.199905,131.911240 115.041779,134.062927 111.300507,134.995575 
	C110.582756,135.086304 110.204903,135.115326 109.541412,135.137390 
	C109.171722,134.972275 109.087677,134.814087 108.844826,134.124908 
	C108.325455,133.546494 107.964882,133.499039 107.604317,133.451599 
	C107.604317,133.451599 107.252151,133.483719 107.231750,133.027954 
	C107.824821,131.441696 108.438301,130.311234 109.051788,129.180771 
z"/>
<path fill="#7D443D" opacity="1.000000" stroke="none" 
	d="
M82.029289,140.900970 
	C87.497108,141.408096 92.964928,141.915237 98.792633,142.948029 
	C99.152512,143.473679 99.548981,143.763351 99.548981,143.763351 
	C99.548981,143.763351 100.037804,143.716415 100.037804,143.716415 
	C100.037804,143.716415 100.066750,144.031448 99.985855,144.168457 
	C96.980408,146.140884 94.257271,147.715408 90.625206,145.239212 
	C89.282593,144.323868 86.696320,145.460495 84.793594,145.079788 
	C82.548012,144.630493 80.428497,143.551132 78.399323,142.289581 
	C79.705978,141.523163 80.867630,141.212067 82.029289,140.900970 
z"/>
<path fill="#2A1513" opacity="1.000000" stroke="none" 
	d="
M82.019363,140.561340 
	C80.867630,141.212067 79.705978,141.523163 78.217575,142.001617 
	C77.603363,142.043259 77.346138,141.872086 77.019577,141.445526 
	C78.394478,139.783279 79.415291,136.053558 82.019363,140.561340 
z"/>
<path fill="#897F78" opacity="1.000000" stroke="none" 
	d="
M80.099472,135.375946 
	C86.424225,135.448303 92.929947,135.873749 99.689697,136.574753 
	C93.389305,136.476547 86.834862,136.102768 80.099472,135.375946 
z"/>
<path fill="#CB9C88" opacity="1.000000" stroke="none" 
	d="
M109.032455,128.889145 
	C108.438301,130.311234 107.824821,131.441696 107.113953,132.896088 
	C107.016556,133.220001 106.602722,133.364349 106.386810,133.404999 
	C105.896141,133.173904 105.621391,132.902191 105.176430,132.397125 
	C104.123657,131.481781 103.078285,130.918777 102.446182,130.053757 
	C102.222733,129.747986 103.008041,128.705063 103.673332,127.981956 
	C105.395714,127.978058 106.777580,127.990891 108.573837,128.008606 
	C108.996529,128.208176 109.004829,128.402847 109.032455,128.889145 
z"/>
<path fill="#7C544A" opacity="1.000000" stroke="none" 
	d="
M107.792427,133.613876 
	C107.964882,133.499039 108.325455,133.546494 108.797043,133.860504 
	C108.585373,134.045822 108.276199,133.928848 107.792427,133.613876 
z"/>
<path fill="#2A1513" opacity="1.000000" stroke="none" 
	d="
M99.901184,143.555847 
	C100.037804,143.716415 99.548981,143.763351 99.548981,143.763351 
	C99.548981,143.763351 99.152512,143.473679 99.090775,143.235657 
	C99.312599,143.059219 99.557770,143.191757 99.901184,143.555847 
z"/>
<path fill="#DCAC97" opacity="1.000000" stroke="none" 
	d="
M96.258041,118.988281 
	C95.438072,118.728363 94.966370,118.471024 94.278152,117.763641 
	C94.373909,116.208344 94.686165,115.103104 95.165192,113.753494 
	C95.884033,113.336456 96.436111,113.163803 96.988182,112.991150 
	C97.325188,114.729210 97.662201,116.467278 97.997841,118.595917 
	C97.533089,118.987946 97.069695,118.989403 96.258041,118.988281 
z"/>
<path fill="#ECBBA6" opacity="1.000000" stroke="none" 
	d="
M96.987587,112.742004 
	C96.436111,113.163803 95.884033,113.336456 94.866989,113.732437 
	C93.933990,113.634933 93.465965,113.314102 92.997940,112.993279 
	C93.506676,112.096725 94.015419,111.200180 94.789230,110.141373 
	C95.054291,109.979111 95.548355,109.964264 95.796013,109.964722 
	C96.191895,110.527275 96.340126,111.089371 96.730392,111.823120 
	C96.972420,111.994766 96.986992,112.492851 96.987587,112.742004 
z"/>
<path fill="#443B34" opacity="1.000000" stroke="none" 
	d="
M69.846474,96.118240 
	C70.172455,96.491280 70.170982,96.857872 70.258636,97.485809 
	C69.741875,97.630783 69.135979,97.514404 68.530090,97.398018 
	C68.859734,96.969276 69.189377,96.540535 69.846474,96.118240 
z"/>
<path fill="#E3B39C" opacity="1.000000" stroke="none" 
	d="
M92.666046,112.996185 
	C93.465965,113.314102 93.933990,113.634933 94.700218,113.976814 
	C94.686165,115.103104 94.373909,116.208344 94.028168,117.659744 
	C90.386917,118.394424 90.373695,116.275192 91.002502,113.360672 
	C91.449181,113.006615 91.891663,113.002853 92.666046,112.996185 
z"/>
<path fill="#2F3234" opacity="1.000000" stroke="none" 
	d="
M110.837326,102.344498 
	C111.993820,101.649300 113.154922,101.325966 114.639503,101.025284 
	C115.313492,102.726501 115.663986,104.405067 115.957550,106.456375 
	C113.291634,106.829117 110.682648,106.829117 108.073662,106.829117 
	C108.008850,106.356972 107.944046,105.884819 107.879234,105.412674 
	C108.866798,104.513908 109.854362,103.615135 110.837326,102.344498 
z"/>
</svg>